<?xml version="1.0" encoding="UTF-8" standalone="no"?>
<!DOCTYPE svg PUBLIC "-//W3C//DTD SVG 1.1//EN"
 "http://www.w3.org/Graphics/SVG/1.1/DTD/svg11.dtd">
<!-- Generated by graphviz version 2.36.0 (20140111.2315)
 -->
<!-- Title: controllers_diagram Pages: 1 -->
<svg width="853pt" height="875pt"
 viewBox="0.00 0.00 853.00 875.00" xmlns="http://www.w3.org/2000/svg" xmlns:xlink="http://www.w3.org/1999/xlink">
<g id="graph0" class="graph" transform="scale(1 1) rotate(0) translate(4 871)">
<title>controllers_diagram</title>
<polygon fill="white" stroke="none" points="-4,4 -4,-871 849,-871 849,4 -4,4"/>
<!-- _diagram_info -->
<g id="node1" class="node"><title>_diagram_info</title>
<text text-anchor="start" x="399" y="-250.6" font-family="Times,serif" font-size="13.00">Controllers diagram</text>
<text text-anchor="start" x="399" y="-236.6" font-family="Times,serif" font-size="13.00">Date: Apr 30 2015 &#45; 14:10</text>
<text text-anchor="start" x="399" y="-222.6" font-family="Times,serif" font-size="13.00">Migration version: 20150407093413</text>
<text text-anchor="start" x="399" y="-208.6" font-family="Times,serif" font-size="13.00">Generated by RailRoady 1.3.0</text>
<text text-anchor="start" x="399" y="-194.6" font-family="Times,serif" font-size="13.00">http://railroady.prestonlee.com</text>
</g>
<!-- TripResourceController -->
<g id="node2" class="node"><title>TripResourceController</title>
<path fill="none" stroke="black" d="M369,-731.5C369,-731.5 491,-731.5 491,-731.5 497,-731.5 503,-737.5 503,-743.5 503,-743.5 503,-827.5 503,-827.5 503,-833.5 497,-839.5 491,-839.5 491,-839.5 369,-839.5 369,-839.5 363,-839.5 357,-833.5 357,-827.5 357,-827.5 357,-743.5 357,-743.5 357,-737.5 363,-731.5 369,-731.5"/>
<text text-anchor="middle" x="430" y="-824.3" font-family="Times,serif" font-size="14.00">TripResourceController</text>
<polyline fill="none" stroke="black" points="357,-816.5 503,-816.5 "/>
<polyline fill="none" stroke="black" points="357,-792.5 503,-792.5 "/>
<text text-anchor="start" x="365" y="-777.3" font-family="Times,serif" font-size="14.00">authorize_user!</text>
<text text-anchor="start" x="365" y="-762.3" font-family="Times,serif" font-size="14.00">set_trip</text>
<polyline fill="none" stroke="black" points="357,-754.5 503,-754.5 "/>
<text text-anchor="start" x="365" y="-739.3" font-family="Times,serif" font-size="14.00">_layout</text>
</g>
<!-- RequestsController -->
<g id="node3" class="node"><title>RequestsController</title>
<path fill="none" stroke="black" d="M675,-340.5C675,-340.5 772,-340.5 772,-340.5 778,-340.5 784,-346.5 784,-352.5 784,-352.5 784,-466.5 784,-466.5 784,-472.5 778,-478.5 772,-478.5 772,-478.5 675,-478.5 675,-478.5 669,-478.5 663,-472.5 663,-466.5 663,-466.5 663,-352.5 663,-352.5 663,-346.5 669,-340.5 675,-340.5"/>
<text text-anchor="middle" x="723.5" y="-463.3" font-family="Times,serif" font-size="14.00">RequestsController</text>
<polyline fill="none" stroke="black" points="663,-455.5 784,-455.5 "/>
<text text-anchor="start" x="671" y="-440.3" font-family="Times,serif" font-size="14.00">create</text>
<text text-anchor="start" x="671" y="-425.3" font-family="Times,serif" font-size="14.00">destroy</text>
<text text-anchor="start" x="671" y="-410.3" font-family="Times,serif" font-size="14.00">new</text>
<polyline fill="none" stroke="black" points="663,-402.5 784,-402.5 "/>
<polyline fill="none" stroke="black" points="663,-378.5 784,-378.5 "/>
<text text-anchor="start" x="671" y="-363.3" font-family="Times,serif" font-size="14.00">_layout</text>
<text text-anchor="start" x="671" y="-348.3" font-family="Times,serif" font-size="14.00">set_request</text>
</g>
<!-- ArticlesController -->
<g id="node4" class="node"><title>ArticlesController</title>
<path fill="none" stroke="black" d="M556,-561.5C556,-561.5 647,-561.5 647,-561.5 653,-561.5 659,-567.5 659,-573.5 659,-573.5 659,-762.5 659,-762.5 659,-768.5 653,-774.5 647,-774.5 647,-774.5 556,-774.5 556,-774.5 550,-774.5 544,-768.5 544,-762.5 544,-762.5 544,-573.5 544,-573.5 544,-567.5 550,-561.5 556,-561.5"/>
<text text-anchor="middle" x="601.5" y="-759.3" font-family="Times,serif" font-size="14.00">ArticlesController</text>
<polyline fill="none" stroke="black" points="544,-751.5 659,-751.5 "/>
<text text-anchor="start" x="552" y="-736.3" font-family="Times,serif" font-size="14.00">create</text>
<text text-anchor="start" x="552" y="-721.3" font-family="Times,serif" font-size="14.00">destroy</text>
<text text-anchor="start" x="552" y="-706.3" font-family="Times,serif" font-size="14.00">edit</text>
<text text-anchor="start" x="552" y="-691.3" font-family="Times,serif" font-size="14.00">index</text>
<text text-anchor="start" x="552" y="-676.3" font-family="Times,serif" font-size="14.00">new</text>
<text text-anchor="start" x="552" y="-661.3" font-family="Times,serif" font-size="14.00">show</text>
<text text-anchor="start" x="552" y="-646.3" font-family="Times,serif" font-size="14.00">update</text>
<polyline fill="none" stroke="black" points="544,-638.5 659,-638.5 "/>
<polyline fill="none" stroke="black" points="544,-614.5 659,-614.5 "/>
<text text-anchor="start" x="552" y="-599.3" font-family="Times,serif" font-size="14.00">_layout</text>
<text text-anchor="start" x="552" y="-584.3" font-family="Times,serif" font-size="14.00">article_params</text>
<text text-anchor="start" x="552" y="-569.3" font-family="Times,serif" font-size="14.00">set_trip</text>
</g>
<!-- EquipmentItemsController -->
<g id="node5" class="node"><title>EquipmentItemsController</title>
<path fill="none" stroke="black" d="M675,-136.5C675,-136.5 814,-136.5 814,-136.5 820,-136.5 826,-142.5 826,-148.5 826,-148.5 826,-292.5 826,-292.5 826,-298.5 820,-304.5 814,-304.5 814,-304.5 675,-304.5 675,-304.5 669,-304.5 663,-298.5 663,-292.5 663,-292.5 663,-148.5 663,-148.5 663,-142.5 669,-136.5 675,-136.5"/>
<text text-anchor="middle" x="744.5" y="-289.3" font-family="Times,serif" font-size="14.00">EquipmentItemsController</text>
<polyline fill="none" stroke="black" points="663,-281.5 826,-281.5 "/>
<text text-anchor="start" x="671" y="-266.3" font-family="Times,serif" font-size="14.00">create</text>
<text text-anchor="start" x="671" y="-251.3" font-family="Times,serif" font-size="14.00">destroy</text>
<text text-anchor="start" x="671" y="-236.3" font-family="Times,serif" font-size="14.00">edit</text>
<text text-anchor="start" x="671" y="-221.3" font-family="Times,serif" font-size="14.00">show</text>
<text text-anchor="start" x="671" y="-206.3" font-family="Times,serif" font-size="14.00">update</text>
<polyline fill="none" stroke="black" points="663,-198.5 826,-198.5 "/>
<polyline fill="none" stroke="black" points="663,-174.5 826,-174.5 "/>
<text text-anchor="start" x="671" y="-159.3" font-family="Times,serif" font-size="14.00">_layout</text>
<text text-anchor="start" x="671" y="-144.3" font-family="Times,serif" font-size="14.00">equipment_item_params</text>
</g>
<!-- Web::PageController -->
<g id="node6" class="node"><title>Web::PageController</title>
<path fill="none" stroke="black" d="M97,-561.5C97,-561.5 205,-561.5 205,-561.5 211,-561.5 217,-567.5 217,-573.5 217,-573.5 217,-672.5 217,-672.5 217,-678.5 211,-684.5 205,-684.5 205,-684.5 97,-684.5 97,-684.5 91,-684.5 85,-678.5 85,-672.5 85,-672.5 85,-573.5 85,-573.5 85,-567.5 91,-561.5 97,-561.5"/>
<text text-anchor="middle" x="151" y="-669.3" font-family="Times,serif" font-size="14.00">Web::PageController</text>
<polyline fill="none" stroke="black" points="85,-661.5 217,-661.5 "/>
<text text-anchor="start" x="93" y="-646.3" font-family="Times,serif" font-size="14.00">faq</text>
<text text-anchor="start" x="93" y="-631.3" font-family="Times,serif" font-size="14.00">features</text>
<text text-anchor="start" x="93" y="-616.3" font-family="Times,serif" font-size="14.00">index</text>
<polyline fill="none" stroke="black" points="85,-608.5 217,-608.5 "/>
<polyline fill="none" stroke="black" points="85,-584.5 217,-584.5 "/>
<text text-anchor="start" x="93" y="-569.3" font-family="Times,serif" font-size="14.00">_layout</text>
</g>
<!-- RegistrationsController -->
<g id="node7" class="node"><title>RegistrationsController</title>
<path fill="none" stroke="black" d="M709,-510.5C709,-510.5 833,-510.5 833,-510.5 839,-510.5 845,-516.5 845,-522.5 845,-522.5 845,-622.5 845,-622.5 845,-628.5 839,-634.5 833,-634.5 833,-634.5 709,-634.5 709,-634.5 703,-634.5 697,-628.5 697,-622.5 697,-622.5 697,-522.5 697,-522.5 697,-516.5 703,-510.5 709,-510.5"/>
<text text-anchor="middle" x="771" y="-619.3" font-family="Times,serif" font-size="14.00">RegistrationsController</text>
<polyline fill="none" stroke="black" points="697,-611.5 845,-611.5 "/>
<polyline fill="none" stroke="black" points="697,-587.5 845,-587.5 "/>
<polyline fill="none" stroke="black" points="697,-563.5 845,-563.5 "/>
<text text-anchor="start" x="705" y="-548.3" font-family="Times,serif" font-size="14.00">_layout</text>
<text text-anchor="start" x="705" y="-533.3" font-family="Times,serif" font-size="14.00">account_update_params</text>
<text text-anchor="start" x="705" y="-518.3" font-family="Times,serif" font-size="14.00">sign_up_params</text>
</g>
<!-- ParticipantsController -->
<g id="node8" class="node"><title>ParticipantsController</title>
<path fill="none" stroke="black" d="M709,-663.5C709,-663.5 821,-663.5 821,-663.5 827,-663.5 833,-669.5 833,-675.5 833,-675.5 833,-804.5 833,-804.5 833,-810.5 827,-816.5 821,-816.5 821,-816.5 709,-816.5 709,-816.5 703,-816.5 697,-810.5 697,-804.5 697,-804.5 697,-675.5 697,-675.5 697,-669.5 703,-663.5 709,-663.5"/>
<text text-anchor="middle" x="765" y="-801.3" font-family="Times,serif" font-size="14.00">ParticipantsController</text>
<polyline fill="none" stroke="black" points="697,-793.5 833,-793.5 "/>
<text text-anchor="start" x="705" y="-778.3" font-family="Times,serif" font-size="14.00">create</text>
<text text-anchor="start" x="705" y="-763.3" font-family="Times,serif" font-size="14.00">destroy</text>
<text text-anchor="start" x="705" y="-748.3" font-family="Times,serif" font-size="14.00">index</text>
<text text-anchor="start" x="705" y="-733.3" font-family="Times,serif" font-size="14.00">new</text>
<text text-anchor="start" x="705" y="-718.3" font-family="Times,serif" font-size="14.00">set_participant</text>
<polyline fill="none" stroke="black" points="697,-710.5 833,-710.5 "/>
<polyline fill="none" stroke="black" points="697,-686.5 833,-686.5 "/>
<text text-anchor="start" x="705" y="-671.3" font-family="Times,serif" font-size="14.00">_layout</text>
</g>
<!-- SearchController -->
<g id="node9" class="node"><title>SearchController</title>
<path fill="none" stroke="black" d="M12,-255.5C12,-255.5 97,-255.5 97,-255.5 103,-255.5 109,-261.5 109,-267.5 109,-267.5 109,-366.5 109,-366.5 109,-372.5 103,-378.5 97,-378.5 97,-378.5 12,-378.5 12,-378.5 6,-378.5 0,-372.5 0,-366.5 0,-366.5 0,-267.5 0,-267.5 0,-261.5 6,-255.5 12,-255.5"/>
<text text-anchor="middle" x="54.5" y="-363.3" font-family="Times,serif" font-size="14.00">SearchController</text>
<polyline fill="none" stroke="black" points="0,-355.5 109,-355.5 "/>
<text text-anchor="start" x="8" y="-340.3" font-family="Times,serif" font-size="14.00">index</text>
<text text-anchor="start" x="8" y="-325.3" font-family="Times,serif" font-size="14.00">trips</text>
<text text-anchor="start" x="8" y="-310.3" font-family="Times,serif" font-size="14.00">users</text>
<polyline fill="none" stroke="black" points="0,-302.5 109,-302.5 "/>
<polyline fill="none" stroke="black" points="0,-278.5 109,-278.5 "/>
<text text-anchor="start" x="8" y="-263.3" font-family="Times,serif" font-size="14.00">_layout</text>
</g>
<!-- MediaDropboxController -->
<g id="node10" class="node"><title>MediaDropboxController</title>
<path fill="none" stroke="black" d="M148,-153.5C148,-153.5 279,-153.5 279,-153.5 285,-153.5 291,-159.5 291,-165.5 291,-165.5 291,-264.5 291,-264.5 291,-270.5 285,-276.5 279,-276.5 279,-276.5 148,-276.5 148,-276.5 142,-276.5 136,-270.5 136,-264.5 136,-264.5 136,-165.5 136,-165.5 136,-159.5 142,-153.5 148,-153.5"/>
<text text-anchor="middle" x="213.5" y="-261.3" font-family="Times,serif" font-size="14.00">MediaDropboxController</text>
<polyline fill="none" stroke="black" points="136,-253.5 291,-253.5 "/>
<text text-anchor="start" x="144" y="-238.3" font-family="Times,serif" font-size="14.00">auth_finish</text>
<text text-anchor="start" x="144" y="-223.3" font-family="Times,serif" font-size="14.00">auth_start</text>
<polyline fill="none" stroke="black" points="136,-215.5 291,-215.5 "/>
<polyline fill="none" stroke="black" points="136,-191.5 291,-191.5 "/>
<text text-anchor="start" x="144" y="-176.3" font-family="Times,serif" font-size="14.00">_layout</text>
<text text-anchor="start" x="144" y="-161.3" font-family="Times,serif" font-size="14.00">get_web_auth</text>
</g>
<!-- MapController -->
<g id="node11" class="node"><title>MapController</title>
<path fill="none" stroke="black" d="M573,-0.5C573,-0.5 647,-0.5 647,-0.5 653,-0.5 659,-6.5 659,-12.5 659,-12.5 659,-96.5 659,-96.5 659,-102.5 653,-108.5 647,-108.5 647,-108.5 573,-108.5 573,-108.5 567,-108.5 561,-102.5 561,-96.5 561,-96.5 561,-12.5 561,-12.5 561,-6.5 567,-0.5 573,-0.5"/>
<text text-anchor="middle" x="610" y="-93.3" font-family="Times,serif" font-size="14.00">MapController</text>
<polyline fill="none" stroke="black" points="561,-85.5 659,-85.5 "/>
<text text-anchor="start" x="569" y="-70.3" font-family="Times,serif" font-size="14.00">index</text>
<text text-anchor="start" x="569" y="-55.3" font-family="Times,serif" font-size="14.00">show</text>
<polyline fill="none" stroke="black" points="561,-47.5 659,-47.5 "/>
<polyline fill="none" stroke="black" points="561,-23.5 659,-23.5 "/>
<text text-anchor="start" x="569" y="-8.3" font-family="Times,serif" font-size="14.00">_layout</text>
</g>
<!-- EquipmentListsController -->
<g id="node12" class="node"><title>EquipmentListsController</title>
<path fill="none" stroke="black" d="M318,-306.5C318,-306.5 452,-306.5 452,-306.5 458,-306.5 464,-312.5 464,-318.5 464,-318.5 464,-492.5 464,-492.5 464,-498.5 458,-504.5 452,-504.5 452,-504.5 318,-504.5 318,-504.5 312,-504.5 306,-498.5 306,-492.5 306,-492.5 306,-318.5 306,-318.5 306,-312.5 312,-306.5 318,-306.5"/>
<text text-anchor="middle" x="385" y="-489.3" font-family="Times,serif" font-size="14.00">EquipmentListsController</text>
<polyline fill="none" stroke="black" points="306,-481.5 464,-481.5 "/>
<text text-anchor="start" x="314" y="-466.3" font-family="Times,serif" font-size="14.00">create</text>
<text text-anchor="start" x="314" y="-451.3" font-family="Times,serif" font-size="14.00">destroy</text>
<text text-anchor="start" x="314" y="-436.3" font-family="Times,serif" font-size="14.00">edit</text>
<text text-anchor="start" x="314" y="-421.3" font-family="Times,serif" font-size="14.00">equipment_list_params</text>
<text text-anchor="start" x="314" y="-406.3" font-family="Times,serif" font-size="14.00">index</text>
<text text-anchor="start" x="314" y="-391.3" font-family="Times,serif" font-size="14.00">new</text>
<text text-anchor="start" x="314" y="-376.3" font-family="Times,serif" font-size="14.00">show</text>
<text text-anchor="start" x="314" y="-361.3" font-family="Times,serif" font-size="14.00">update</text>
<polyline fill="none" stroke="black" points="306,-353.5 464,-353.5 "/>
<polyline fill="none" stroke="black" points="306,-329.5 464,-329.5 "/>
<text text-anchor="start" x="314" y="-314.3" font-family="Times,serif" font-size="14.00">_layout</text>
</g>
<!-- DashboardController -->
<g id="node13" class="node"><title>DashboardController</title>
<path fill="none" stroke="black" d="M148,-34.5C148,-34.5 255,-34.5 255,-34.5 261,-34.5 267,-40.5 267,-46.5 267,-46.5 267,-115.5 267,-115.5 267,-121.5 261,-127.5 255,-127.5 255,-127.5 148,-127.5 148,-127.5 142,-127.5 136,-121.5 136,-115.5 136,-115.5 136,-46.5 136,-46.5 136,-40.5 142,-34.5 148,-34.5"/>
<text text-anchor="middle" x="201.5" y="-112.3" font-family="Times,serif" font-size="14.00">DashboardController</text>
<polyline fill="none" stroke="black" points="136,-104.5 267,-104.5 "/>
<text text-anchor="start" x="144" y="-89.3" font-family="Times,serif" font-size="14.00">index</text>
<polyline fill="none" stroke="black" points="136,-81.5 267,-81.5 "/>
<polyline fill="none" stroke="black" points="136,-57.5 267,-57.5 "/>
<text text-anchor="start" x="144" y="-42.3" font-family="Times,serif" font-size="14.00">_layout</text>
</g>
<!-- UsersController -->
<g id="node14" class="node"><title>UsersController</title>
<path fill="none" stroke="black" d="M12,-68.5C12,-68.5 91,-68.5 91,-68.5 97,-68.5 103,-74.5 103,-80.5 103,-80.5 103,-209.5 103,-209.5 103,-215.5 97,-221.5 91,-221.5 91,-221.5 12,-221.5 12,-221.5 6,-221.5 0,-215.5 0,-209.5 0,-209.5 0,-80.5 0,-80.5 0,-74.5 6,-68.5 12,-68.5"/>
<text text-anchor="middle" x="51.5" y="-206.3" font-family="Times,serif" font-size="14.00">UsersController</text>
<polyline fill="none" stroke="black" points="0,-198.5 103,-198.5 "/>
<text text-anchor="start" x="8" y="-183.3" font-family="Times,serif" font-size="14.00">edit</text>
<text text-anchor="start" x="8" y="-168.3" font-family="Times,serif" font-size="14.00">show</text>
<text text-anchor="start" x="8" y="-153.3" font-family="Times,serif" font-size="14.00">update</text>
<polyline fill="none" stroke="black" points="0,-145.5 103,-145.5 "/>
<polyline fill="none" stroke="black" points="0,-121.5 103,-121.5 "/>
<text text-anchor="start" x="8" y="-106.3" font-family="Times,serif" font-size="14.00">_layout</text>
<text text-anchor="start" x="8" y="-91.3" font-family="Times,serif" font-size="14.00">set_user</text>
<text text-anchor="start" x="8" y="-76.3" font-family="Times,serif" font-size="14.00">user_params</text>
</g>
<!-- EquipmentAssignmentsController -->
<g id="node15" class="node"><title>EquipmentAssignmentsController</title>
<path fill="none" stroke="black" d="M267,-544.5C267,-544.5 446,-544.5 446,-544.5 452,-544.5 458,-550.5 458,-556.5 458,-556.5 458,-685.5 458,-685.5 458,-691.5 452,-697.5 446,-697.5 446,-697.5 267,-697.5 267,-697.5 261,-697.5 255,-691.5 255,-685.5 255,-685.5 255,-556.5 255,-556.5 255,-550.5 261,-544.5 267,-544.5"/>
<text text-anchor="middle" x="356.5" y="-682.3" font-family="Times,serif" font-size="14.00">EquipmentAssignmentsController</text>
<polyline fill="none" stroke="black" points="255,-674.5 458,-674.5 "/>
<text text-anchor="start" x="263" y="-659.3" font-family="Times,serif" font-size="14.00">create</text>
<text text-anchor="start" x="263" y="-644.3" font-family="Times,serif" font-size="14.00">destroy</text>
<text text-anchor="start" x="263" y="-629.3" font-family="Times,serif" font-size="14.00">edit</text>
<text text-anchor="start" x="263" y="-614.3" font-family="Times,serif" font-size="14.00">update</text>
<polyline fill="none" stroke="black" points="255,-606.5 458,-606.5 "/>
<polyline fill="none" stroke="black" points="255,-582.5 458,-582.5 "/>
<text text-anchor="start" x="263" y="-567.3" font-family="Times,serif" font-size="14.00">_layout</text>
<text text-anchor="start" x="263" y="-552.3" font-family="Times,serif" font-size="14.00">equipment_assignment_params</text>
</g>
<!-- ApplicationController -->
<g id="node16" class="node"><title>ApplicationController</title>
<path fill="none" stroke="black" d="M403,-51.5C403,-51.5 519,-51.5 519,-51.5 525,-51.5 531,-57.5 531,-63.5 531,-63.5 531,-147.5 531,-147.5 531,-153.5 525,-159.5 519,-159.5 519,-159.5 403,-159.5 403,-159.5 397,-159.5 391,-153.5 391,-147.5 391,-147.5 391,-63.5 391,-63.5 391,-57.5 397,-51.5 403,-51.5"/>
<text text-anchor="middle" x="461" y="-144.3" font-family="Times,serif" font-size="14.00">ApplicationController</text>
<polyline fill="none" stroke="black" points="391,-136.5 531,-136.5 "/>
<text text-anchor="start" x="399" y="-121.3" font-family="Times,serif" font-size="14.00">after_sign_in_path_for</text>
<polyline fill="none" stroke="black" points="391,-113.5 531,-113.5 "/>
<polyline fill="none" stroke="black" points="391,-89.5 531,-89.5 "/>
<text text-anchor="start" x="399" y="-74.3" font-family="Times,serif" font-size="14.00">_layout</text>
<text text-anchor="start" x="399" y="-59.3" font-family="Times,serif" font-size="14.00">user_not_authorized</text>
</g>
<!-- FriendshipsController -->
<g id="node17" class="node"><title>FriendshipsController</title>
<path fill="none" stroke="black" d="M12,-408.5C12,-408.5 123,-408.5 123,-408.5 129,-408.5 135,-414.5 135,-420.5 135,-420.5 135,-519.5 135,-519.5 135,-525.5 129,-531.5 123,-531.5 123,-531.5 12,-531.5 12,-531.5 6,-531.5 0,-525.5 0,-519.5 0,-519.5 0,-420.5 0,-420.5 0,-414.5 6,-408.5 12,-408.5"/>
<text text-anchor="middle" x="67.5" y="-516.3" font-family="Times,serif" font-size="14.00">FriendshipsController</text>
<polyline fill="none" stroke="black" points="0,-508.5 135,-508.5 "/>
<text text-anchor="start" x="8" y="-493.3" font-family="Times,serif" font-size="14.00">create</text>
<text text-anchor="start" x="8" y="-478.3" font-family="Times,serif" font-size="14.00">destroy</text>
<polyline fill="none" stroke="black" points="0,-470.5 135,-470.5 "/>
<polyline fill="none" stroke="black" points="0,-446.5 135,-446.5 "/>
<text text-anchor="start" x="8" y="-431.3" font-family="Times,serif" font-size="14.00">_layout</text>
<text text-anchor="start" x="8" y="-416.3" font-family="Times,serif" font-size="14.00">set_user</text>
</g>
<!-- TripsController -->
<g id="node18" class="node"><title>TripsController</title>
<path fill="none" stroke="black" d="M182,-306.5C182,-306.5 259,-306.5 259,-306.5 265,-306.5 271,-312.5 271,-318.5 271,-318.5 271,-492.5 271,-492.5 271,-498.5 265,-504.5 259,-504.5 259,-504.5 182,-504.5 182,-504.5 176,-504.5 170,-498.5 170,-492.5 170,-492.5 170,-318.5 170,-318.5 170,-312.5 176,-306.5 182,-306.5"/>
<text text-anchor="middle" x="220.5" y="-489.3" font-family="Times,serif" font-size="14.00">TripsController</text>
<polyline fill="none" stroke="black" points="170,-481.5 271,-481.5 "/>
<text text-anchor="start" x="178" y="-466.3" font-family="Times,serif" font-size="14.00">create</text>
<text text-anchor="start" x="178" y="-451.3" font-family="Times,serif" font-size="14.00">destroy</text>
<text text-anchor="start" x="178" y="-436.3" font-family="Times,serif" font-size="14.00">edit</text>
<text text-anchor="start" x="178" y="-421.3" font-family="Times,serif" font-size="14.00">index</text>
<text text-anchor="start" x="178" y="-406.3" font-family="Times,serif" font-size="14.00">new</text>
<text text-anchor="start" x="178" y="-391.3" font-family="Times,serif" font-size="14.00">show</text>
<text text-anchor="start" x="178" y="-376.3" font-family="Times,serif" font-size="14.00">update</text>
<polyline fill="none" stroke="black" points="170,-368.5 271,-368.5 "/>
<polyline fill="none" stroke="black" points="170,-344.5 271,-344.5 "/>
<text text-anchor="start" x="178" y="-329.3" font-family="Times,serif" font-size="14.00">_layout</text>
<text text-anchor="start" x="178" y="-314.3" font-family="Times,serif" font-size="14.00">trip_params</text>
</g>
<!-- EventsController -->
<g id="node19" class="node"><title>EventsController</title>
<path fill="none" stroke="black" d="M505,-306.5C505,-306.5 614,-306.5 614,-306.5 620,-306.5 626,-312.5 626,-318.5 626,-318.5 626,-522.5 626,-522.5 626,-528.5 620,-534.5 614,-534.5 614,-534.5 505,-534.5 505,-534.5 499,-534.5 493,-528.5 493,-522.5 493,-522.5 493,-318.5 493,-318.5 493,-312.5 499,-306.5 505,-306.5"/>
<text text-anchor="middle" x="559.5" y="-519.3" font-family="Times,serif" font-size="14.00">EventsController</text>
<polyline fill="none" stroke="black" points="493,-511.5 626,-511.5 "/>
<text text-anchor="start" x="501" y="-496.3" font-family="Times,serif" font-size="14.00">create</text>
<text text-anchor="start" x="501" y="-481.3" font-family="Times,serif" font-size="14.00">destroy</text>
<text text-anchor="start" x="501" y="-466.3" font-family="Times,serif" font-size="14.00">edit</text>
<text text-anchor="start" x="501" y="-451.3" font-family="Times,serif" font-size="14.00">index</text>
<text text-anchor="start" x="501" y="-436.3" font-family="Times,serif" font-size="14.00">new</text>
<text text-anchor="start" x="501" y="-421.3" font-family="Times,serif" font-size="14.00">show</text>
<text text-anchor="start" x="501" y="-406.3" font-family="Times,serif" font-size="14.00">update</text>
<polyline fill="none" stroke="black" points="493,-398.5 626,-398.5 "/>
<polyline fill="none" stroke="black" points="493,-374.5 626,-374.5 "/>
<text text-anchor="start" x="501" y="-359.3" font-family="Times,serif" font-size="14.00">_layout</text>
<text text-anchor="start" x="501" y="-344.3" font-family="Times,serif" font-size="14.00">build_json_event_list</text>
<text text-anchor="start" x="501" y="-329.3" font-family="Times,serif" font-size="14.00">event_params</text>
<text text-anchor="start" x="501" y="-314.3" font-family="Times,serif" font-size="14.00">set_event</text>
</g>
<!-- MediaController -->
<g id="node20" class="node"><title>MediaController</title>
<path fill="none" stroke="black" d="M97,-714.5C97,-714.5 209,-714.5 209,-714.5 215,-714.5 221,-720.5 221,-726.5 221,-726.5 221,-854.5 221,-854.5 221,-860.5 215,-866.5 209,-866.5 209,-866.5 97,-866.5 97,-866.5 91,-866.5 85,-860.5 85,-854.5 85,-854.5 85,-726.5 85,-726.5 85,-720.5 91,-714.5 97,-714.5"/>
<text text-anchor="middle" x="153" y="-851.3" font-family="Times,serif" font-size="14.00">MediaController</text>
<polyline fill="none" stroke="black" points="85,-843.5 221,-843.5 "/>
<text text-anchor="start" x="93" y="-828.3" font-family="Times,serif" font-size="14.00">destroy</text>
<text text-anchor="start" x="93" y="-813.3" font-family="Times,serif" font-size="14.00">index</text>
<text text-anchor="start" x="93" y="-798.3" font-family="Times,serif" font-size="14.00">show</text>
<polyline fill="none" stroke="black" points="85,-790.5 221,-790.5 "/>
<text text-anchor="start" x="93" y="-775.3" font-family="Times,serif" font-size="14.00">verify_configuration</text>
<polyline fill="none" stroke="black" points="85,-767.5 221,-767.5 "/>
<text text-anchor="start" x="93" y="-752.3" font-family="Times,serif" font-size="14.00">_layout</text>
<text text-anchor="start" x="93" y="-737.3" font-family="Times,serif" font-size="14.00">dropbox_parse_folder</text>
<text text-anchor="start" x="93" y="-722.3" font-family="Times,serif" font-size="14.00">initialize_dropbox</text>
</g>
</g>
</svg>
