<?xml version="1.0" encoding="UTF-8" standalone="no"?>
<!DOCTYPE svg PUBLIC "-//W3C//DTD SVG 1.1//EN"
 "http://www.w3.org/Graphics/SVG/1.1/DTD/svg11.dtd">
<!-- Generated by graphviz version 2.36.0 (20140111.2315)
 -->
<!-- Title: controllers_diagram Pages: 1 -->
<svg width="1412pt" height="1191pt"
 viewBox="0.00 0.00 1412.00 1191.00" xmlns="http://www.w3.org/2000/svg" xmlns:xlink="http://www.w3.org/1999/xlink">
<g id="graph0" class="graph" transform="scale(1 1) rotate(0) translate(4 1187)">
<title>controllers_diagram</title>
<polygon fill="white" stroke="none" points="-4,4 -4,-1187 1408,-1187 1408,4 -4,4"/>
<!-- _diagram_info -->
<g id="node1" class="node"><title>_diagram_info</title>
<text text-anchor="start" x="1198" y="-1168.6" font-family="Times,serif" font-size="13.00">Controllers diagram</text>
<text text-anchor="start" x="1198" y="-1154.6" font-family="Times,serif" font-size="13.00">Date: May 05 2015 &#45; 12:54</text>
<text text-anchor="start" x="1198" y="-1140.6" font-family="Times,serif" font-size="13.00">Migration version: 20150407093413</text>
<text text-anchor="start" x="1198" y="-1126.6" font-family="Times,serif" font-size="13.00">Generated by RailRoady 1.3.0</text>
<text text-anchor="start" x="1198" y="-1112.6" font-family="Times,serif" font-size="13.00">http://railroady.prestonlee.com</text>
</g>
<!-- TripResourceController -->
<g id="node2" class="node"><title>TripResourceController</title>
<ellipse fill="none" stroke="black" cx="466.559" cy="-222.475" rx="94.7833" ry="18"/>
<text text-anchor="middle" x="466.559" y="-218.775" font-family="Times,serif" font-size="14.00">TripResourceController</text>
</g>
<!-- ParticipantsController -->
<g id="node8" class="node"><title>ParticipantsController</title>
<ellipse fill="none" stroke="black" cx="349.531" cy="-19.8293" rx="88.2844" ry="18"/>
<text text-anchor="middle" x="349.531" y="-16.1293" font-family="Times,serif" font-size="14.00">ParticipantsController</text>
</g>
<!-- TripResourceController&#45;&gt;ParticipantsController -->
<g id="edge7" class="edge"><title>TripResourceController&#45;&gt;ParticipantsController</title>
<path fill="none" stroke="black" d="M456.174,-204.492C433.966,-166.036 382.081,-76.192 359.893,-37.7724"/>
</g>
<!-- EventsController -->
<g id="node19" class="node"><title>EventsController</title>
<ellipse fill="none" stroke="black" cx="117.159" cy="-73.2451" rx="70.6878" ry="18"/>
<text text-anchor="middle" x="117.159" y="-69.5451" font-family="Times,serif" font-size="14.00">EventsController</text>
</g>
<!-- TripResourceController&#45;&gt;EventsController -->
<g id="edge17" class="edge"><title>TripResourceController&#45;&gt;EventsController</title>
<path fill="none" stroke="black" d="M427.832,-205.935C359.782,-176.87 219.697,-117.039 153.427,-88.735"/>
</g>
<!-- RequestsController -->
<g id="node3" class="node"><title>RequestsController</title>
<ellipse fill="none" stroke="black" cx="868.432" cy="-476.343" rx="78.7863" ry="18"/>
<text text-anchor="middle" x="868.432" y="-472.643" font-family="Times,serif" font-size="14.00">RequestsController</text>
</g>
<!-- ArticlesController -->
<g id="node4" class="node"><title>ArticlesController</title>
<ellipse fill="none" stroke="black" cx="577.503" cy="-18" rx="74.9875" ry="18"/>
<text text-anchor="middle" x="577.503" y="-14.3" font-family="Times,serif" font-size="14.00">ArticlesController</text>
</g>
<!-- EquipmentItemsController -->
<g id="node5" class="node"><title>EquipmentItemsController</title>
<ellipse fill="none" stroke="black" cx="569.292" cy="-590.476" rx="105.881" ry="18"/>
<text text-anchor="middle" x="569.292" y="-586.776" font-family="Times,serif" font-size="14.00">EquipmentItemsController</text>
</g>
<!-- Web::PageController -->
<g id="node6" class="node"><title>Web::PageController</title>
<ellipse fill="none" stroke="black" cx="813.646" cy="-685.532" rx="85.5853" ry="18"/>
<text text-anchor="middle" x="813.646" y="-681.832" font-family="Times,serif" font-size="14.00">Web::PageController</text>
</g>
<!-- RegistrationsController -->
<g id="node7" class="node"><title>RegistrationsController</title>
<ellipse fill="none" stroke="black" cx="757.711" cy="-951.618" rx="92.8835" ry="18"/>
<text text-anchor="middle" x="757.711" y="-947.918" font-family="Times,serif" font-size="14.00">RegistrationsController</text>
</g>
<!-- SearchController -->
<g id="node9" class="node"><title>SearchController</title>
<ellipse fill="none" stroke="black" cx="1077.68" cy="-289.101" rx="70.6878" ry="18"/>
<text text-anchor="middle" x="1077.68" y="-285.401" font-family="Times,serif" font-size="14.00">SearchController</text>
</g>
<!-- MediaDropboxController -->
<g id="node10" class="node"><title>MediaDropboxController</title>
<ellipse fill="none" stroke="black" cx="497.711" cy="-409.915" rx="100.983" ry="18"/>
<text text-anchor="middle" x="497.711" y="-406.215" font-family="Times,serif" font-size="14.00">MediaDropboxController</text>
</g>
<!-- MapController -->
<g id="node11" class="node"><title>MapController</title>
<ellipse fill="none" stroke="black" cx="798.814" cy="-24.7974" rx="63.8893" ry="18"/>
<text text-anchor="middle" x="798.814" y="-21.0974" font-family="Times,serif" font-size="14.00">MapController</text>
</g>
<!-- EquipmentListsController -->
<g id="node12" class="node"><title>EquipmentListsController</title>
<ellipse fill="none" stroke="black" cx="652.863" cy="-249.261" rx="102.882" ry="18"/>
<text text-anchor="middle" x="652.863" y="-245.561" font-family="Times,serif" font-size="14.00">EquipmentListsController</text>
</g>
<!-- DashboardController -->
<g id="node13" class="node"><title>DashboardController</title>
<ellipse fill="none" stroke="black" cx="293.682" cy="-294.582" rx="85.2851" ry="18"/>
<text text-anchor="middle" x="293.682" y="-290.882" font-family="Times,serif" font-size="14.00">DashboardController</text>
</g>
<!-- UsersController -->
<g id="node14" class="node"><title>UsersController</title>
<ellipse fill="none" stroke="black" cx="1084.71" cy="-505.984" rx="66.8882" ry="18"/>
<text text-anchor="middle" x="1084.71" y="-502.284" font-family="Times,serif" font-size="14.00">UsersController</text>
</g>
<!-- EquipmentAssignmentsController -->
<g id="node15" class="node"><title>EquipmentAssignmentsController</title>
<ellipse fill="none" stroke="black" cx="1064.35" cy="-712.661" rx="131.877" ry="18"/>
<text text-anchor="middle" x="1064.35" y="-708.961" font-family="Times,serif" font-size="14.00">EquipmentAssignmentsController</text>
</g>
<!-- ApplicationController -->
<g id="node16" class="node"><title>ApplicationController</title>
<ellipse fill="none" stroke="black" cx="692.984" cy="-451.307" rx="88.2844" ry="18"/>
<text text-anchor="middle" x="692.984" y="-447.607" font-family="Times,serif" font-size="14.00">ApplicationController</text>
</g>
<!-- ApplicationController&#45;&gt;TripResourceController -->
<g id="edge1" class="edge"><title>ApplicationController&#45;&gt;TripResourceController</title>
<path fill="none" stroke="black" d="M675.217,-433.351C632.89,-390.574 526.487,-283.04 484.244,-240.348"/>
</g>
<!-- ApplicationController&#45;&gt;RequestsController -->
<g id="edge2" class="edge"><title>ApplicationController&#45;&gt;RequestsController</title>
<path fill="none" stroke="black" d="M765.612,-461.671C777.49,-463.366 789.749,-465.115 801.482,-466.789"/>
</g>
<!-- ApplicationController&#45;&gt;ArticlesController -->
<g id="edge3" class="edge"><title>ApplicationController&#45;&gt;ArticlesController</title>
<path fill="none" stroke="black" d="M669.495,-433.735C629.854,-401.93 553.48,-330.521 548.574,-249.149 547.766,-235.753 559.271,-235.526 563.047,-222.647 582.537,-156.169 580.756,-72.5751 578.775,-36.2476"/>
</g>
<!-- ApplicationController&#45;&gt;EquipmentItemsController -->
<g id="edge4" class="edge"><title>ApplicationController&#45;&gt;EquipmentItemsController</title>
<path fill="none" stroke="black" d="M677.067,-469.216C653.317,-495.938 608.864,-545.954 585.149,-572.636"/>
</g>
<!-- ApplicationController&#45;&gt;Web::PageController -->
<g id="edge5" class="edge"><title>ApplicationController&#45;&gt;Web::PageController</title>
<path fill="none" stroke="black" d="M702.252,-469.297C724.712,-512.896 781.854,-623.819 804.346,-667.481"/>
</g>
<!-- ApplicationController&#45;&gt;SearchController -->
<g id="edge8" class="edge"><title>ApplicationController&#45;&gt;SearchController</title>
<path fill="none" stroke="black" d="M731.632,-435.011C806.036,-403.639 968.243,-335.245 1041.04,-304.551"/>
</g>
<!-- ApplicationController&#45;&gt;MediaDropboxController -->
<g id="edge9" class="edge"><title>ApplicationController&#45;&gt;MediaDropboxController</title>
<path fill="none" stroke="black" d="M631.734,-438.324C609.812,-433.677 585.033,-428.425 562.798,-423.711"/>
</g>
<!-- ApplicationController&#45;&gt;MapController -->
<g id="edge10" class="edge"><title>ApplicationController&#45;&gt;MapController</title>
<path fill="none" stroke="black" d="M699.594,-433.15C712.186,-398.042 739.894,-318.239 757.152,-249.373 776.142,-173.598 790.576,-81.4565 796.221,-43.0101"/>
</g>
<!-- ApplicationController&#45;&gt;EquipmentListsController -->
<g id="edge11" class="edge"><title>ApplicationController&#45;&gt;EquipmentListsController</title>
<path fill="none" stroke="black" d="M689.353,-433.02C681.714,-394.553 664.063,-305.664 656.457,-267.361"/>
</g>
<!-- ApplicationController&#45;&gt;DashboardController -->
<g id="edge12" class="edge"><title>ApplicationController&#45;&gt;DashboardController</title>
<path fill="none" stroke="black" d="M657.888,-434.697C633.547,-423.376 600.274,-408.292 570.467,-396.131 489.663,-363.162 393.718,-329.064 338.642,-309.965"/>
</g>
<!-- ApplicationController&#45;&gt;UsersController -->
<g id="edge13" class="edge"><title>ApplicationController&#45;&gt;UsersController</title>
<path fill="none" stroke="black" d="M781.165,-449.958C824.92,-450.71 878.375,-453.772 925.566,-462.581 965.402,-470.016 1009.82,-482.492 1041.59,-492.165"/>
</g>
<!-- ApplicationController&#45;&gt;EquipmentAssignmentsController -->
<g id="edge14" class="edge"><title>ApplicationController&#45;&gt;EquipmentAssignmentsController</title>
<path fill="none" stroke="black" d="M717.638,-468.658C784.867,-515.971 970.896,-646.892 1038.97,-694.8"/>
</g>
<!-- FriendshipsController -->
<g id="node17" class="node"><title>FriendshipsController</title>
<ellipse fill="none" stroke="black" cx="846.133" cy="-260.815" rx="87.9851" ry="18"/>
<text text-anchor="middle" x="846.133" y="-257.115" font-family="Times,serif" font-size="14.00">FriendshipsController</text>
</g>
<!-- ApplicationController&#45;&gt;FriendshipsController -->
<g id="edge15" class="edge"><title>ApplicationController&#45;&gt;FriendshipsController</title>
<path fill="none" stroke="black" d="M707.392,-433.386C736.581,-397.08 802.402,-315.21 831.652,-278.827"/>
</g>
<!-- TripsController -->
<g id="node18" class="node"><title>TripsController</title>
<ellipse fill="none" stroke="black" cx="1060.45" cy="-36.0801" rx="65.7887" ry="18"/>
<text text-anchor="middle" x="1060.45" y="-32.3801" font-family="Times,serif" font-size="14.00">TripsController</text>
</g>
<!-- ApplicationController&#45;&gt;TripsController -->
<g id="edge16" class="edge"><title>ApplicationController&#45;&gt;TripsController</title>
<path fill="none" stroke="black" d="M721.789,-434.112C770.539,-403.924 870.346,-337.3 935.473,-260.953 993.303,-193.162 1036.9,-94.4636 1053.33,-54.1995"/>
</g>
<!-- MediaController -->
<g id="node20" class="node"><title>MediaController</title>
<ellipse fill="none" stroke="black" cx="340.171" cy="-528.372" rx="69.5877" ry="18"/>
<text text-anchor="middle" x="340.171" y="-524.672" font-family="Times,serif" font-size="14.00">MediaController</text>
</g>
<!-- ApplicationController&#45;&gt;MediaController -->
<g id="edge18" class="edge"><title>ApplicationController&#45;&gt;MediaController</title>
<path fill="none" stroke="black" d="M632.333,-464.555C565.051,-479.251 457.545,-502.734 393.406,-516.744"/>
</g>
<!-- DeviseController -->
<g id="node21" class="node"><title>DeviseController</title>
<ellipse fill="none" stroke="black" cx="382.802" cy="-738.248" rx="71.4873" ry="18"/>
<text text-anchor="middle" x="382.802" y="-734.548" font-family="Times,serif" font-size="14.00">DeviseController</text>
</g>
<!-- ApplicationController&#45;&gt;DeviseController -->
<g id="edge19" class="edge"><title>ApplicationController&#45;&gt;DeviseController</title>
<path fill="none" stroke="black" d="M652.562,-467.531C602.557,-489.261 517.254,-531.957 461.754,-590.366 424.465,-629.608 399.683,-689.893 388.919,-719.927"/>
</g>
<!-- Devise::PasswordsController -->
<g id="node22" class="node"><title>Devise::PasswordsController</title>
<ellipse fill="none" stroke="black" cx="160.77" cy="-939.623" rx="113.18" ry="18"/>
<text text-anchor="middle" x="160.77" y="-935.923" font-family="Times,serif" font-size="14.00">Devise::PasswordsController</text>
</g>
<!-- DeviseController&#45;&gt;Devise::PasswordsController -->
<g id="edge20" class="edge"><title>DeviseController&#45;&gt;Devise::PasswordsController</title>
<path fill="none" stroke="black" d="M363.487,-755.767C321.601,-793.756 222.792,-883.372 180.518,-921.713"/>
</g>
<!-- Devise::UnlocksController -->
<g id="node23" class="node"><title>Devise::UnlocksController</title>
<ellipse fill="none" stroke="black" cx="109.471" cy="-402.267" rx="105.082" ry="18"/>
<text text-anchor="middle" x="109.471" y="-398.567" font-family="Times,serif" font-size="14.00">Devise::UnlocksController</text>
</g>
<!-- DeviseController&#45;&gt;Devise::UnlocksController -->
<g id="edge21" class="edge"><title>DeviseController&#45;&gt;Devise::UnlocksController</title>
<path fill="none" stroke="black" d="M368.107,-720.185C320.647,-661.847 171.802,-478.885 124.239,-420.42"/>
</g>
<!-- Devise::RegistrationsController -->
<g id="node24" class="node"><title>Devise::RegistrationsController</title>
<ellipse fill="none" stroke="black" cx="614.725" cy="-766.803" rx="122.379" ry="18"/>
<text text-anchor="middle" x="614.725" y="-763.103" font-family="Times,serif" font-size="14.00">Devise::RegistrationsController</text>
</g>
<!-- DeviseController&#45;&gt;Devise::RegistrationsController -->
<g id="edge22" class="edge"><title>DeviseController&#45;&gt;Devise::RegistrationsController</title>
<path fill="none" stroke="black" d="M447.098,-746.164C469.887,-748.97 496.023,-752.188 520.771,-755.235"/>
</g>
<!-- Devise::OmniauthCallbacksController -->
<g id="node25" class="node"><title>Devise::OmniauthCallbacksController</title>
<ellipse fill="none" stroke="black" cx="1044.58" cy="-948.03" rx="146.474" ry="18"/>
<text text-anchor="middle" x="1044.58" y="-944.33" font-family="Times,serif" font-size="14.00">Devise::OmniauthCallbacksController</text>
</g>
<!-- DeviseController&#45;&gt;Devise::OmniauthCallbacksController -->
<g id="edge23" class="edge"><title>DeviseController&#45;&gt;Devise::OmniauthCallbacksController</title>
<path fill="none" stroke="black" d="M427.509,-752.42C545.396,-789.79 864.336,-890.893 991.344,-931.154"/>
</g>
<!-- Devise::SessionsController -->
<g id="node26" class="node"><title>Devise::SessionsController</title>
<ellipse fill="none" stroke="black" cx="471.932" cy="-964.514" rx="106.681" ry="18"/>
<text text-anchor="middle" x="471.932" y="-960.814" font-family="Times,serif" font-size="14.00">Devise::SessionsController</text>
</g>
<!-- DeviseController&#45;&gt;Devise::SessionsController -->
<g id="edge24" class="edge"><title>DeviseController&#45;&gt;Devise::SessionsController</title>
<path fill="none" stroke="black" d="M389.945,-756.382C406.634,-798.748 448.032,-903.842 464.754,-946.293"/>
</g>
<!-- Devise::ConfirmationsController -->
<g id="node27" class="node"><title>Devise::ConfirmationsController</title>
<ellipse fill="none" stroke="black" cx="127.389" cy="-667.657" rx="127.277" ry="18"/>
<text text-anchor="middle" x="127.389" y="-663.957" font-family="Times,serif" font-size="14.00">Devise::ConfirmationsController</text>
</g>
<!-- DeviseController&#45;&gt;Devise::ConfirmationsController -->
<g id="edge25" class="edge"><title>DeviseController&#45;&gt;Devise::ConfirmationsController</title>
<path fill="none" stroke="black" d="M334.461,-724.888C292.231,-713.216 230.818,-696.243 185.838,-683.812"/>
</g>
<!-- Devise::RegistrationsController&#45;&gt;RegistrationsController -->
<g id="edge6" class="edge"><title>Devise::RegistrationsController&#45;&gt;RegistrationsController</title>
<path fill="none" stroke="black" d="M628.696,-784.86C656.102,-820.283 716.613,-898.497 743.895,-933.759"/>
</g>
</g>
</svg>
