<?xml version="1.0" encoding="UTF-8" standalone="no"?>
<!DOCTYPE svg PUBLIC "-//W3C//DTD SVG 1.1//EN"
 "http://www.w3.org/Graphics/SVG/1.1/DTD/svg11.dtd">
<!-- Generated by graphviz version 2.36.0 (20140111.2315)
 -->
<!-- Title: models_diagram Pages: 1 -->
<svg width="1380pt" height="410pt"
 viewBox="0.00 0.00 1380.00 410.00" xmlns="http://www.w3.org/2000/svg" xmlns:xlink="http://www.w3.org/1999/xlink">
<g id="graph0" class="graph" transform="scale(1 1) rotate(0) translate(4 406)">
<title>models_diagram</title>
<polygon fill="white" stroke="none" points="-4,4 -4,-406 1376,-406 1376,4 -4,4"/>
<!-- _diagram_info -->
<g id="node1" class="node"><title>_diagram_info</title>
<text text-anchor="start" x="661" y="-387.6" font-family="Times,serif" font-size="13.00">Models diagram</text>
<text text-anchor="start" x="661" y="-373.6" font-family="Times,serif" font-size="13.00">Date: Apr 30 2015 &#45; 14:10</text>
<text text-anchor="start" x="661" y="-359.6" font-family="Times,serif" font-size="13.00">Migration version: 20150407093413</text>
<text text-anchor="start" x="661" y="-345.6" font-family="Times,serif" font-size="13.00">Generated by RailRoady 1.3.0</text>
<text text-anchor="start" x="661" y="-331.6" font-family="Times,serif" font-size="13.00">http://railroady.prestonlee.com</text>
</g>
<!-- ApiAccessToken -->
<g id="node2" class="node"><title>ApiAccessToken</title>
<ellipse fill="none" stroke="black" cx="847" cy="-166" rx="71.2405" ry="18"/>
<text text-anchor="middle" x="847" y="-162.3" font-family="Times,serif" font-size="14.00">ApiAccessToken</text>
</g>
<!-- Participant -->
<g id="node3" class="node"><title>Participant</title>
<ellipse fill="none" stroke="black" cx="985" cy="-166" rx="48.6179" ry="18"/>
<text text-anchor="middle" x="985" y="-162.3" font-family="Times,serif" font-size="14.00">Participant</text>
</g>
<!-- EquipmentList -->
<g id="node4" class="node"><title>EquipmentList</title>
<ellipse fill="none" stroke="black" cx="694" cy="-166" rx="63.5411" ry="18"/>
<text text-anchor="middle" x="694" y="-162.3" font-family="Times,serif" font-size="14.00">EquipmentList</text>
</g>
<!-- EquipmentItem -->
<g id="node6" class="node"><title>EquipmentItem</title>
<ellipse fill="none" stroke="black" cx="694" cy="-92" rx="65.9423" ry="18"/>
<text text-anchor="middle" x="694" y="-88.3" font-family="Times,serif" font-size="14.00">EquipmentItem</text>
</g>
<!-- EquipmentList&#45;&gt;EquipmentItem -->
<g id="edge1" class="edge"><title>EquipmentList&#45;&gt;EquipmentItem</title>
<path fill="none" stroke="#c89b94" d="M694,-139.792C694,-133.58 694,-126.896 694,-120.579"/>
<ellipse fill="none" stroke="#c89b94" cx="694" cy="-143.937" rx="4" ry="4"/>
<polygon fill="#c89b94" stroke="#c89b94" points="694,-120.441 698.5,-110.441 694,-115.441 694,-110.441 694,-110.441 694,-110.441 694,-115.441 689.5,-110.441 694,-120.441 694,-120.441"/>
</g>
<!-- ParticipantRole -->
<g id="node5" class="node"><title>ParticipantRole</title>
<ellipse fill="none" stroke="black" cx="1181" cy="-363" rx="65.4659" ry="18"/>
<text text-anchor="middle" x="1181" y="-359.3" font-family="Times,serif" font-size="14.00">ParticipantRole</text>
</g>
<!-- EquipmentAssignment -->
<g id="node9" class="node"><title>EquipmentAssignment</title>
<ellipse fill="none" stroke="black" cx="694" cy="-18" rx="91.9385" ry="18"/>
<text text-anchor="middle" x="694" y="-14.3" font-family="Times,serif" font-size="14.00">EquipmentAssignment</text>
</g>
<!-- EquipmentItem&#45;&gt;EquipmentAssignment -->
<g id="edge2" class="edge"><title>EquipmentItem&#45;&gt;EquipmentAssignment</title>
<path fill="none" stroke="#057405" d="M694,-65.7923C694,-59.5805 694,-52.8963 694,-46.5786"/>
<ellipse fill="none" stroke="#057405" cx="694" cy="-69.937" rx="4" ry="4"/>
<polygon fill="#057405" stroke="#057405" points="694,-46.4407 698.5,-36.4406 694,-41.4407 694,-36.4407 694,-36.4407 694,-36.4407 694,-41.4407 689.5,-36.4407 694,-46.4407 694,-46.4407"/>
</g>
<!-- Article -->
<g id="node7" class="node"><title>Article</title>
<ellipse fill="none" stroke="black" cx="35" cy="-166" rx="35.1455" ry="18"/>
<text text-anchor="middle" x="35" y="-162.3" font-family="Times,serif" font-size="14.00">Article</text>
</g>
<!-- Event -->
<g id="node8" class="node"><title>Event</title>
<ellipse fill="none" stroke="black" cx="119" cy="-166" rx="31.2965" ry="18"/>
<text text-anchor="middle" x="119" y="-162.3" font-family="Times,serif" font-size="14.00">Event</text>
</g>
<!-- ApiProvider -->
<g id="node10" class="node"><title>ApiProvider</title>
<ellipse fill="none" stroke="black" cx="1319" cy="-363" rx="53.4184" ry="18"/>
<text text-anchor="middle" x="1319" y="-359.3" font-family="Times,serif" font-size="14.00">ApiProvider</text>
</g>
<!-- Friendship -->
<g id="node11" class="node"><title>Friendship</title>
<ellipse fill="none" stroke="black" cx="961" cy="-254" rx="48.1437" ry="18"/>
<text text-anchor="middle" x="961" y="-250.3" font-family="Times,serif" font-size="14.00">Friendship</text>
</g>
<!-- User -->
<g id="node12" class="node"><title>User</title>
<ellipse fill="none" stroke="black" cx="912" cy="-363" rx="26.949" ry="18"/>
<text text-anchor="middle" x="912" y="-359.3" font-family="Times,serif" font-size="14.00">User</text>
</g>
<!-- User&#45;&gt;ApiAccessToken -->
<g id="edge11" class="edge"><title>User&#45;&gt;ApiAccessToken</title>
<path fill="none" stroke="#cc2105" d="M892.709,-340.602C884.8,-330.721 876.28,-318.436 871,-306 855.471,-269.422 849.986,-223.367 848.051,-194.545"/>
<ellipse fill="none" stroke="#cc2105" cx="895.486" cy="-343.951" rx="4.00002" ry="4.00002"/>
<polygon fill="#cc2105" stroke="#cc2105" points="848.042,-194.383 851.962,-184.142 847.756,-189.391 847.47,-184.399 847.47,-184.399 847.47,-184.399 847.756,-189.391 842.977,-184.656 848.042,-194.383 848.042,-194.383"/>
</g>
<!-- User&#45;&gt;Participant -->
<g id="edge10" class="edge"><title>User&#45;&gt;Participant</title>
<path fill="none" stroke="#63d9a8" d="M903.713,-337.195C896.39,-310.817 888.991,-268.501 904,-236 913.497,-215.434 932.481,-198.739 949.684,-186.925"/>
<ellipse fill="none" stroke="#63d9a8" cx="904.93" cy="-341.33" rx="4.00001" ry="4.00001"/>
<polygon fill="#63d9a8" stroke="#63d9a8" points="950.084,-186.664 960.918,-184.965 954.271,-183.93 958.458,-181.197 958.458,-181.197 958.458,-181.197 954.271,-183.93 955.998,-177.429 950.084,-186.664 950.084,-186.664"/>
</g>
<!-- User&#45;&gt;Friendship -->
<g id="edge3" class="edge"><title>User&#45;&gt;Friendship</title>
<path fill="none" stroke="#979d7e" d="M913.264,-336.759C914.853,-322.363 918.353,-304.38 926,-290 928.193,-285.877 931.031,-281.927 934.143,-278.263"/>
<ellipse fill="none" stroke="#979d7e" cx="912.897" cy="-340.784" rx="4" ry="4"/>
<polygon fill="#979d7e" stroke="#979d7e" points="934.381,-278.011 944.519,-273.83 937.814,-274.376 941.247,-270.741 941.247,-270.741 941.247,-270.741 937.814,-274.376 937.976,-267.651 934.381,-278.011 934.381,-278.011"/>
</g>
<!-- User&#45;&gt;Friendship -->
<g id="edge5" class="edge"><title>User&#45;&gt;Friendship</title>
<path fill="none" stroke="#47f0c5" d="M923.105,-337.751C930.787,-320.976 941.006,-298.661 948.896,-281.431"/>
<ellipse fill="none" stroke="#47f0c5" cx="921.322" cy="-341.644" rx="4.00002" ry="4.00002"/>
<polygon fill="#47f0c5" stroke="#47f0c5" points="949.072,-281.046 957.327,-273.828 951.154,-276.5 953.236,-271.954 953.236,-271.954 953.236,-271.954 951.154,-276.5 949.144,-270.081 949.072,-281.046 949.072,-281.046"/>
<text text-anchor="middle" x="997" y="-294.3" font-family="Times,serif" font-size="14.00">inverse_friendships</text>
</g>
<!-- User&#45;&gt;User -->
<g id="edge4" class="edge"><title>User&#45;&gt;User</title>
<path fill="none" stroke="#411dbd" d="M948.12,-368.426C953.422,-367.571 957,-365.763 957,-363 957,-360.237 953.422,-358.429 948.12,-357.574"/>
<polygon fill="#411dbd" stroke="#411dbd" points="947.882,-368.438 937.66,-364.47 942.889,-368.701 937.896,-368.963 937.896,-368.963 937.896,-368.963 942.889,-368.701 938.132,-373.457 947.882,-368.438 947.882,-368.438"/>
<polygon fill="#411dbd" stroke="#411dbd" points="947.882,-357.562 938.132,-352.543 942.889,-357.299 937.896,-357.037 937.896,-357.037 937.896,-357.037 942.889,-357.299 937.66,-361.53 947.882,-357.562 947.882,-357.562"/>
<text text-anchor="middle" x="976" y="-359.3" font-family="Times,serif" font-size="14.00">friends</text>
</g>
<!-- User&#45;&gt;User -->
<g id="edge6" class="edge"><title>User&#45;&gt;User</title>
<path fill="none" stroke="#4e0da9" d="M945.528,-374.024C969.4,-376.956 995,-373.281 995,-363 995,-352.719 969.4,-349.044 945.528,-351.976"/>
<polygon fill="#4e0da9" stroke="#4e0da9" points="945.349,-373.995 936.217,-367.924 940.415,-373.179 935.482,-372.363 935.482,-372.363 935.482,-372.363 940.415,-373.179 934.748,-376.803 945.349,-373.995 945.349,-373.995"/>
<polygon fill="#4e0da9" stroke="#4e0da9" points="945.349,-352.005 934.748,-349.197 940.415,-352.821 935.482,-353.637 935.482,-353.637 935.482,-353.637 940.415,-352.821 936.217,-358.076 945.349,-352.005 945.349,-352.005"/>
<text text-anchor="middle" x="1037" y="-359.3" font-family="Times,serif" font-size="14.00">inverse_friends</text>
</g>
<!-- Request -->
<g id="node13" class="node"><title>Request</title>
<ellipse fill="none" stroke="black" cx="1066" cy="-254" rx="38.4949" ry="18"/>
<text text-anchor="middle" x="1066" y="-250.3" font-family="Times,serif" font-size="14.00">Request</text>
</g>
<!-- User&#45;&gt;Request -->
<g id="edge7" class="edge"><title>User&#45;&gt;Request</title>
<path fill="none" stroke="#57bf93" d="M946.63,-357.045C978.455,-350.681 1024.7,-336.556 1052,-306 1057.83,-299.477 1061.26,-290.746 1063.26,-282.354"/>
<ellipse fill="none" stroke="#57bf93" cx="942.399" cy="-357.836" rx="4.00001" ry="4.00001"/>
<polygon fill="#57bf93" stroke="#57bf93" points="1063.28,-282.293 1069.5,-273.267 1064.18,-277.375 1065.08,-272.457 1065.08,-272.457 1065.08,-272.457 1064.18,-277.375 1060.65,-271.646 1063.28,-282.293 1063.28,-282.293"/>
</g>
<!-- Trip -->
<g id="node14" class="node"><title>Trip</title>
<ellipse fill="none" stroke="black" cx="518" cy="-254" rx="27" ry="18"/>
<text text-anchor="middle" x="518" y="-250.3" font-family="Times,serif" font-size="14.00">Trip</text>
</g>
<!-- User&#45;&gt;Trip -->
<g id="edge9" class="edge"><title>User&#45;&gt;Trip</title>
<path fill="none" stroke="#5ce7e6" d="M895.267,-340.347C889.48,-334.194 882.536,-328.067 875,-324 819.573,-294.091 633.655,-268.887 554.346,-259.224"/>
<ellipse fill="none" stroke="#5ce7e6" cx="897.999" cy="-343.437" rx="4.00002" ry="4.00002"/>
<polygon fill="#5ce7e6" stroke="#5ce7e6" points="554.258,-259.213 544.868,-253.55 549.293,-258.615 544.329,-258.017 544.329,-258.017 544.329,-258.017 549.293,-258.615 543.791,-262.485 554.258,-259.213 554.258,-259.213"/>
</g>
<!-- Requester -->
<g id="node15" class="node"><title>Requester</title>
<ellipse fill="none" stroke="black" cx="1169" cy="-254" rx="46.2191" ry="18"/>
<text text-anchor="middle" x="1169" y="-250.3" font-family="Times,serif" font-size="14.00">Requester</text>
</g>
<!-- User&#45;&gt;Requester -->
<g id="edge8" class="edge"><title>User&#45;&gt;Requester</title>
<path fill="none" stroke="#5a7f7e" d="M946.071,-351.401C978.42,-340.993 1028.18,-324.084 1070,-306 1092.11,-296.437 1116.15,-284.101 1135.01,-273.956"/>
<polygon fill="#5a7f7e" stroke="#5a7f7e" points="945.739,-351.507 934.844,-350.258 940.975,-353.026 936.212,-354.545 936.212,-354.545 936.212,-354.545 940.975,-353.026 937.579,-358.832 945.739,-351.507 945.739,-351.507"/>
<polygon fill="#5a7f7e" stroke="#5a7f7e" points="1135.03,-273.946 1145.96,-273.129 1139.42,-271.56 1143.82,-269.174 1143.82,-269.174 1143.82,-269.174 1139.42,-271.56 1141.67,-265.219 1135.03,-273.946 1135.03,-273.946"/>
</g>
<!-- Trip&#45;&gt;ApiAccessToken -->
<g id="edge18" class="edge"><title>Trip&#45;&gt;ApiAccessToken</title>
<path fill="none" stroke="#bd32f8" d="M550.521,-244.499C606.124,-229.965 720.157,-200.156 789.465,-182.039"/>
<ellipse fill="none" stroke="#bd32f8" cx="546.598" cy="-245.524" rx="4.00001" ry="4.00001"/>
<polygon fill="#bd32f8" stroke="#bd32f8" points="789.679,-181.984 800.492,-183.808 794.517,-180.719 799.354,-179.455 799.354,-179.455 799.354,-179.455 794.517,-180.719 798.216,-175.101 789.679,-181.984 789.679,-181.984"/>
</g>
<!-- Trip&#45;&gt;Participant -->
<g id="edge16" class="edge"><title>Trip&#45;&gt;Participant</title>
<path fill="none" stroke="#59a928" d="M552.689,-248.556C623.54,-239.171 789.768,-215.571 927,-184 931.084,-183.06 935.305,-182 939.522,-180.88"/>
<ellipse fill="none" stroke="#59a928" cx="548.496" cy="-249.108" rx="4.00001" ry="4.00001"/>
<polygon fill="#59a928" stroke="#59a928" points="939.645,-180.846 950.482,-182.523 944.464,-179.516 949.284,-178.186 949.284,-178.186 949.284,-178.186 944.464,-179.516 948.087,-173.848 939.645,-180.846 939.645,-180.846"/>
</g>
<!-- Trip&#45;&gt;EquipmentList -->
<g id="edge17" class="edge"><title>Trip&#45;&gt;EquipmentList</title>
<path fill="none" stroke="#c44ec8" d="M546.554,-239.048C575.794,-224.76 621.481,-202.436 654.249,-186.424"/>
<ellipse fill="none" stroke="#c44ec8" cx="542.824" cy="-240.87" rx="4.00002" ry="4.00002"/>
<polygon fill="#c44ec8" stroke="#c44ec8" points="654.562,-186.271 665.522,-185.924 659.054,-184.076 663.546,-181.881 663.546,-181.881 663.546,-181.881 659.054,-184.076 661.571,-177.838 654.562,-186.271 654.562,-186.271"/>
</g>
<!-- Trip&#45;&gt;Article -->
<g id="edge20" class="edge"><title>Trip&#45;&gt;Article</title>
<path fill="none" stroke="#e19f33" d="M482.935,-250.928C407.501,-245.729 224.831,-229.155 79,-184 76.4478,-183.21 73.8315,-182.345 71.2089,-181.437"/>
<ellipse fill="none" stroke="#e19f33" cx="487.18" cy="-251.212" rx="4" ry="4"/>
<polygon fill="#e19f33" stroke="#e19f33" points="71.1878,-181.429 63.3218,-173.789 66.4875,-179.724 61.7872,-178.019 61.7872,-178.019 61.7872,-178.019 66.4875,-179.724 60.2527,-182.25 71.1878,-181.429 71.1878,-181.429"/>
</g>
<!-- Trip&#45;&gt;Event -->
<g id="edge19" class="edge"><title>Trip&#45;&gt;Event</title>
<path fill="none" stroke="#958a0c" d="M483.037,-249.478C418.024,-242.229 274.721,-222.952 160,-184 157.574,-183.176 155.086,-182.28 152.594,-181.343"/>
<ellipse fill="none" stroke="#958a0c" cx="487.334" cy="-249.947" rx="4" ry="4"/>
<polygon fill="#958a0c" stroke="#958a0c" points="152.387,-181.262 144.727,-173.414 147.733,-179.432 143.08,-177.602 143.08,-177.602 143.08,-177.602 147.733,-179.432 141.434,-181.79 152.387,-181.262 152.387,-181.262"/>
</g>
<!-- ActsAsTaggableOn::Tagging -->
<g id="node16" class="node"><title>ActsAsTaggableOn::Tagging</title>
<ellipse fill="none" stroke="black" cx="283" cy="-166" rx="114.085" ry="18"/>
<text text-anchor="middle" x="283" y="-162.3" font-family="Times,serif" font-size="14.00">ActsAsTaggableOn::Tagging</text>
</g>
<!-- Trip&#45;&gt;ActsAsTaggableOn::Tagging -->
<g id="edge12" class="edge"><title>Trip&#45;&gt;ActsAsTaggableOn::Tagging</title>
<path fill="none" stroke="#affdac" d="M482.894,-251.522C428.942,-248.569 329.034,-240.195 302,-218 294.678,-211.989 290.177,-202.863 287.41,-193.984"/>
<ellipse fill="none" stroke="#affdac" cx="487.145" cy="-251.742" rx="4" ry="4"/>
<polygon fill="#affdac" stroke="#affdac" points="287.4,-193.943 289.33,-183.149 286.183,-189.094 284.965,-184.244 284.965,-184.244 284.965,-184.244 286.183,-189.094 280.601,-185.34 287.4,-193.943 287.4,-193.943"/>
<text text-anchor="middle" x="325" y="-206.3" font-family="Times,serif" font-size="14.00">taggings</text>
</g>
<!-- Trip&#45;&gt;ActsAsTaggableOn::Tagging -->
<g id="edge14" class="edge"><title>Trip&#45;&gt;ActsAsTaggableOn::Tagging</title>
<path fill="none" stroke="#da8924" d="M485.417,-243.664C462.93,-237.014 432.437,-227.59 406,-218 380.235,-208.654 351.952,-197.026 329.011,-187.234"/>
<ellipse fill="none" stroke="#da8924" cx="489.479" cy="-244.856" rx="4.00001" ry="4.00001"/>
<polygon fill="#da8924" stroke="#da8924" points="328.717,-187.108 321.304,-179.027 324.123,-185.135 319.528,-183.162 319.528,-183.162 319.528,-183.162 324.123,-185.135 317.753,-187.297 328.717,-187.108 328.717,-187.108"/>
<text text-anchor="middle" x="441" y="-206.3" font-family="Times,serif" font-size="14.00">tag_taggings</text>
</g>
<!-- ActsAsTaggableOn::Tag -->
<g id="node17" class="node"><title>ActsAsTaggableOn::Tag</title>
<ellipse fill="none" stroke="black" cx="514" cy="-166" rx="98.1881" ry="18"/>
<text text-anchor="middle" x="514" y="-162.3" font-family="Times,serif" font-size="14.00">ActsAsTaggableOn::Tag</text>
</g>
<!-- Trip&#45;&gt;ActsAsTaggableOn::Tag -->
<g id="edge13" class="edge"><title>Trip&#45;&gt;ActsAsTaggableOn::Tag</title>
<path fill="none" stroke="#3d4985" d="M491.75,-233.514C487.375,-228.947 483.464,-223.723 481,-218 477.059,-208.846 480.524,-199.501 486.465,-191.353"/>
<polygon fill="#3d4985" stroke="#3d4985" points="492.027,-233.769 496.325,-243.857 495.702,-237.16 499.377,-240.55 499.377,-240.55 499.377,-240.55 495.702,-237.16 502.428,-237.243 492.027,-233.769 492.027,-233.769"/>
<polygon fill="#3d4985" stroke="#3d4985" points="486.548,-191.255 496.468,-186.581 489.798,-187.456 493.048,-183.656 493.048,-183.656 493.048,-183.656 489.798,-187.456 489.628,-180.731 486.548,-191.255 486.548,-191.255"/>
<text text-anchor="middle" x="507.5" y="-206.3" font-family="Times,serif" font-size="14.00">base_tags</text>
</g>
<!-- Trip&#45;&gt;ActsAsTaggableOn::Tag -->
<g id="edge15" class="edge"><title>Trip&#45;&gt;ActsAsTaggableOn::Tag</title>
<path fill="none" stroke="#65bf35" d="M531.817,-227.666C534.682,-219.516 536.235,-210.417 534,-202 533.2,-198.986 532.072,-195.96 530.755,-193.019"/>
<polygon fill="#65bf35" stroke="#65bf35" points="531.749,-227.824 523.697,-235.268 529.794,-232.426 527.838,-237.028 527.838,-237.028 527.838,-237.028 529.794,-232.426 531.98,-238.788 531.749,-227.824 531.749,-227.824"/>
<polygon fill="#65bf35" stroke="#65bf35" points="530.691,-192.896 530.064,-181.948 528.382,-188.461 526.073,-184.026 526.073,-184.026 526.073,-184.026 528.382,-188.461 522.081,-186.105 530.691,-192.896 530.691,-192.896"/>
<text text-anchor="middle" x="547" y="-206.3" font-family="Times,serif" font-size="14.00">tags</text>
</g>
</g>
</svg>
