<?xml version="1.0" encoding="UTF-8" standalone="no"?>
<!DOCTYPE svg PUBLIC "-//W3C//DTD SVG 1.1//EN"
 "http://www.w3.org/Graphics/SVG/1.1/DTD/svg11.dtd">
<!-- Generated by graphviz version 2.36.0 (20140111.2315)
 -->
<!-- Title: models_diagram Pages: 1 -->
<svg width="1358pt" height="1276pt"
 viewBox="0.00 0.00 1357.87 1276.00" xmlns="http://www.w3.org/2000/svg" xmlns:xlink="http://www.w3.org/1999/xlink">
<g id="graph0" class="graph" transform="scale(1 1) rotate(0) translate(4 1272)">
<title>models_diagram</title>
<polygon fill="white" stroke="none" points="-4,4 -4,-1272 1353.87,-1272 1353.87,4 -4,4"/>
<!-- _diagram_info -->
<g id="node1" class="node"><title>_diagram_info</title>
<text text-anchor="start" x="532.869" y="-1253.6" font-family="Times,serif" font-size="13.00">Models diagram</text>
<text text-anchor="start" x="532.869" y="-1239.6" font-family="Times,serif" font-size="13.00">Date: May 05 2015 &#45; 12:54</text>
<text text-anchor="start" x="532.869" y="-1225.6" font-family="Times,serif" font-size="13.00">Migration version: 20150407093413</text>
<text text-anchor="start" x="532.869" y="-1211.6" font-family="Times,serif" font-size="13.00">Generated by RailRoady 1.3.0</text>
<text text-anchor="start" x="532.869" y="-1197.6" font-family="Times,serif" font-size="13.00">http://railroady.prestonlee.com</text>
</g>
<!-- ApiAccessToken -->
<g id="node2" class="node"><title>ApiAccessToken</title>
<path fill="none" stroke="black" d="M42.869,-365.5C42.869,-365.5 166.869,-365.5 166.869,-365.5 172.869,-365.5 178.869,-371.5 178.869,-377.5 178.869,-377.5 178.869,-504.5 178.869,-504.5 178.869,-510.5 172.869,-516.5 166.869,-516.5 166.869,-516.5 42.869,-516.5 42.869,-516.5 36.869,-516.5 30.869,-510.5 30.869,-504.5 30.869,-504.5 30.869,-377.5 30.869,-377.5 30.869,-371.5 36.869,-365.5 42.869,-365.5"/>
<text text-anchor="middle" x="104.869" y="-501.3" font-family="Times,serif" font-size="14.00">ApiAccessToken</text>
<polyline fill="none" stroke="black" points="30.869,-493.5 178.869,-493.5 "/>
<text text-anchor="start" x="38.869" y="-478.3" font-family="Times,serif" font-size="14.00">id :integer</text>
<text text-anchor="start" x="38.869" y="-463.3" font-family="Times,serif" font-size="14.00">user_id :integer</text>
<text text-anchor="start" x="38.869" y="-448.3" font-family="Times,serif" font-size="14.00">trip_id :integer</text>
<text text-anchor="start" x="38.869" y="-433.3" font-family="Times,serif" font-size="14.00">api_provider_id :integer</text>
<text text-anchor="start" x="38.869" y="-418.3" font-family="Times,serif" font-size="14.00">token :string</text>
<text text-anchor="start" x="38.869" y="-403.3" font-family="Times,serif" font-size="14.00">item :string</text>
<text text-anchor="start" x="38.869" y="-388.3" font-family="Times,serif" font-size="14.00">created_at :datetime</text>
<text text-anchor="start" x="38.869" y="-373.3" font-family="Times,serif" font-size="14.00">updated_at :datetime</text>
</g>
<!-- Participant -->
<g id="node3" class="node"><title>Participant</title>
<path fill="none" stroke="black" d="M819.869,-380.5C819.869,-380.5 959.869,-380.5 959.869,-380.5 965.869,-380.5 971.869,-386.5 971.869,-392.5 971.869,-392.5 971.869,-489.5 971.869,-489.5 971.869,-495.5 965.869,-501.5 959.869,-501.5 959.869,-501.5 819.869,-501.5 819.869,-501.5 813.869,-501.5 807.869,-495.5 807.869,-489.5 807.869,-489.5 807.869,-392.5 807.869,-392.5 807.869,-386.5 813.869,-380.5 819.869,-380.5"/>
<text text-anchor="middle" x="889.869" y="-486.3" font-family="Times,serif" font-size="14.00">Participant</text>
<polyline fill="none" stroke="black" points="807.869,-478.5 971.869,-478.5 "/>
<text text-anchor="start" x="815.869" y="-463.3" font-family="Times,serif" font-size="14.00">id :integer</text>
<text text-anchor="start" x="815.869" y="-448.3" font-family="Times,serif" font-size="14.00">user_id :integer</text>
<text text-anchor="start" x="815.869" y="-433.3" font-family="Times,serif" font-size="14.00">trip_id :integer</text>
<text text-anchor="start" x="815.869" y="-418.3" font-family="Times,serif" font-size="14.00">created_at :datetime</text>
<text text-anchor="start" x="815.869" y="-403.3" font-family="Times,serif" font-size="14.00">updated_at :datetime</text>
<text text-anchor="start" x="815.869" y="-388.3" font-family="Times,serif" font-size="14.00">participant_role_id :integer</text>
</g>
<!-- EquipmentList -->
<g id="node4" class="node"><title>EquipmentList</title>
<path fill="none" stroke="black" d="M1151.37,-373C1151.37,-373 1258.37,-373 1258.37,-373 1264.37,-373 1270.37,-379 1270.37,-385 1270.37,-385 1270.37,-497 1270.37,-497 1270.37,-503 1264.37,-509 1258.37,-509 1258.37,-509 1151.37,-509 1151.37,-509 1145.37,-509 1139.37,-503 1139.37,-497 1139.37,-497 1139.37,-385 1139.37,-385 1139.37,-379 1145.37,-373 1151.37,-373"/>
<text text-anchor="middle" x="1204.87" y="-493.8" font-family="Times,serif" font-size="14.00">EquipmentList</text>
<polyline fill="none" stroke="black" points="1139.37,-486 1270.37,-486 "/>
<text text-anchor="start" x="1147.37" y="-470.8" font-family="Times,serif" font-size="14.00">id :integer</text>
<text text-anchor="start" x="1147.37" y="-455.8" font-family="Times,serif" font-size="14.00">name :string</text>
<text text-anchor="start" x="1147.37" y="-440.8" font-family="Times,serif" font-size="14.00">description :string</text>
<text text-anchor="start" x="1147.37" y="-425.8" font-family="Times,serif" font-size="14.00">icon :string</text>
<text text-anchor="start" x="1147.37" y="-410.8" font-family="Times,serif" font-size="14.00">created_at :datetime</text>
<text text-anchor="start" x="1147.37" y="-395.8" font-family="Times,serif" font-size="14.00">updated_at :datetime</text>
<text text-anchor="start" x="1147.37" y="-380.8" font-family="Times,serif" font-size="14.00">trip_id :integer</text>
</g>
<!-- EquipmentItem -->
<g id="node6" class="node"><title>EquipmentItem</title>
<path fill="none" stroke="black" d="M1122.87,-160.5C1122.87,-160.5 1258.87,-160.5 1258.87,-160.5 1264.87,-160.5 1270.87,-166.5 1270.87,-172.5 1270.87,-172.5 1270.87,-299.5 1270.87,-299.5 1270.87,-305.5 1264.87,-311.5 1258.87,-311.5 1258.87,-311.5 1122.87,-311.5 1122.87,-311.5 1116.87,-311.5 1110.87,-305.5 1110.87,-299.5 1110.87,-299.5 1110.87,-172.5 1110.87,-172.5 1110.87,-166.5 1116.87,-160.5 1122.87,-160.5"/>
<text text-anchor="middle" x="1190.87" y="-296.3" font-family="Times,serif" font-size="14.00">EquipmentItem</text>
<polyline fill="none" stroke="black" points="1110.87,-288.5 1270.87,-288.5 "/>
<text text-anchor="start" x="1118.87" y="-273.3" font-family="Times,serif" font-size="14.00">id :integer</text>
<text text-anchor="start" x="1118.87" y="-258.3" font-family="Times,serif" font-size="14.00">name :string</text>
<text text-anchor="start" x="1118.87" y="-243.3" font-family="Times,serif" font-size="14.00">price :float</text>
<text text-anchor="start" x="1118.87" y="-228.3" font-family="Times,serif" font-size="14.00">number :integer</text>
<text text-anchor="start" x="1118.87" y="-213.3" font-family="Times,serif" font-size="14.00">created_at :datetime</text>
<text text-anchor="start" x="1118.87" y="-198.3" font-family="Times,serif" font-size="14.00">updated_at :datetime</text>
<text text-anchor="start" x="1118.87" y="-183.3" font-family="Times,serif" font-size="14.00">equipment_list_id :integer</text>
<text text-anchor="start" x="1118.87" y="-168.3" font-family="Times,serif" font-size="14.00">user_id :integer</text>
</g>
<!-- EquipmentList&#45;&gt;EquipmentItem -->
<g id="edge3" class="edge"><title>EquipmentList&#45;&gt;EquipmentItem</title>
<path fill="none" stroke="#bd25ad" d="M1199.67,-364.579C1198.71,-350.67 1197.7,-336.06 1196.72,-321.894"/>
<ellipse fill="none" stroke="#bd25ad" cx="1199.97" cy="-368.977" rx="4" ry="4"/>
<polygon fill="#bd25ad" stroke="#bd25ad" points="1196.71,-321.649 1200.51,-311.363 1196.36,-316.661 1196.02,-311.673 1196.02,-311.673 1196.02,-311.673 1196.36,-316.661 1191.53,-311.983 1196.71,-321.649 1196.71,-321.649"/>
</g>
<!-- ParticipantRole -->
<g id="node5" class="node"><title>ParticipantRole</title>
<path fill="none" stroke="black" d="M878.369,-947.5C878.369,-947.5 985.369,-947.5 985.369,-947.5 991.369,-947.5 997.369,-953.5 997.369,-959.5 997.369,-959.5 997.369,-1026.5 997.369,-1026.5 997.369,-1032.5 991.369,-1038.5 985.369,-1038.5 985.369,-1038.5 878.369,-1038.5 878.369,-1038.5 872.369,-1038.5 866.369,-1032.5 866.369,-1026.5 866.369,-1026.5 866.369,-959.5 866.369,-959.5 866.369,-953.5 872.369,-947.5 878.369,-947.5"/>
<text text-anchor="middle" x="931.869" y="-1023.3" font-family="Times,serif" font-size="14.00">ParticipantRole</text>
<polyline fill="none" stroke="black" points="866.369,-1015.5 997.369,-1015.5 "/>
<text text-anchor="start" x="874.369" y="-1000.3" font-family="Times,serif" font-size="14.00">id :integer</text>
<text text-anchor="start" x="874.369" y="-985.3" font-family="Times,serif" font-size="14.00">name :string</text>
<text text-anchor="start" x="874.369" y="-970.3" font-family="Times,serif" font-size="14.00">created_at :datetime</text>
<text text-anchor="start" x="874.369" y="-955.3" font-family="Times,serif" font-size="14.00">updated_at :datetime</text>
</g>
<!-- EquipmentAssignment -->
<g id="node9" class="node"><title>EquipmentAssignment</title>
<path fill="none" stroke="black" d="M1193.87,-0.5C1193.87,-0.5 1337.87,-0.5 1337.87,-0.5 1343.87,-0.5 1349.87,-6.5 1349.87,-12.5 1349.87,-12.5 1349.87,-109.5 1349.87,-109.5 1349.87,-115.5 1343.87,-121.5 1337.87,-121.5 1337.87,-121.5 1193.87,-121.5 1193.87,-121.5 1187.87,-121.5 1181.87,-115.5 1181.87,-109.5 1181.87,-109.5 1181.87,-12.5 1181.87,-12.5 1181.87,-6.5 1187.87,-0.5 1193.87,-0.5"/>
<text text-anchor="middle" x="1265.87" y="-106.3" font-family="Times,serif" font-size="14.00">EquipmentAssignment</text>
<polyline fill="none" stroke="black" points="1181.87,-98.5 1349.87,-98.5 "/>
<text text-anchor="start" x="1189.87" y="-83.3" font-family="Times,serif" font-size="14.00">id :integer</text>
<text text-anchor="start" x="1189.87" y="-68.3" font-family="Times,serif" font-size="14.00">number :integer</text>
<text text-anchor="start" x="1189.87" y="-53.3" font-family="Times,serif" font-size="14.00">created_at :datetime</text>
<text text-anchor="start" x="1189.87" y="-38.3" font-family="Times,serif" font-size="14.00">updated_at :datetime</text>
<text text-anchor="start" x="1189.87" y="-23.3" font-family="Times,serif" font-size="14.00">equipment_item_id :integer</text>
<text text-anchor="start" x="1189.87" y="-8.3" font-family="Times,serif" font-size="14.00">user_id :integer</text>
</g>
<!-- EquipmentItem&#45;&gt;EquipmentAssignment -->
<g id="edge6" class="edge"><title>EquipmentItem&#45;&gt;EquipmentAssignment</title>
<path fill="none" stroke="#52d69d" d="M1226.53,-152.736C1229.67,-145.498 1232.83,-138.221 1235.91,-131.108"/>
<ellipse fill="none" stroke="#52d69d" cx="1224.81" cy="-156.707" rx="4.00002" ry="4.00002"/>
<polygon fill="#52d69d" stroke="#52d69d" points="1236.08,-130.703 1244.19,-123.318 1238.07,-126.116 1240.06,-121.528 1240.06,-121.528 1240.06,-121.528 1238.07,-126.116 1235.93,-119.738 1236.08,-130.703 1236.08,-130.703"/>
</g>
<!-- Article -->
<g id="node7" class="node"><title>Article</title>
<path fill="none" stroke="black" d="M1002.37,-380.5C1002.37,-380.5 1109.37,-380.5 1109.37,-380.5 1115.37,-380.5 1121.37,-386.5 1121.37,-392.5 1121.37,-392.5 1121.37,-489.5 1121.37,-489.5 1121.37,-495.5 1115.37,-501.5 1109.37,-501.5 1109.37,-501.5 1002.37,-501.5 1002.37,-501.5 996.369,-501.5 990.369,-495.5 990.369,-489.5 990.369,-489.5 990.369,-392.5 990.369,-392.5 990.369,-386.5 996.369,-380.5 1002.37,-380.5"/>
<text text-anchor="middle" x="1055.87" y="-486.3" font-family="Times,serif" font-size="14.00">Article</text>
<polyline fill="none" stroke="black" points="990.369,-478.5 1121.37,-478.5 "/>
<text text-anchor="start" x="998.369" y="-463.3" font-family="Times,serif" font-size="14.00">id :integer</text>
<text text-anchor="start" x="998.369" y="-448.3" font-family="Times,serif" font-size="14.00">title :string</text>
<text text-anchor="start" x="998.369" y="-433.3" font-family="Times,serif" font-size="14.00">content :text</text>
<text text-anchor="start" x="998.369" y="-418.3" font-family="Times,serif" font-size="14.00">trip_id :integer</text>
<text text-anchor="start" x="998.369" y="-403.3" font-family="Times,serif" font-size="14.00">created_at :datetime</text>
<text text-anchor="start" x="998.369" y="-388.3" font-family="Times,serif" font-size="14.00">updated_at :datetime</text>
</g>
<!-- Event -->
<g id="node8" class="node"><title>Event</title>
<path fill="none" stroke="black" d="M670.369,-350.5C670.369,-350.5 777.369,-350.5 777.369,-350.5 783.369,-350.5 789.369,-356.5 789.369,-362.5 789.369,-362.5 789.369,-519.5 789.369,-519.5 789.369,-525.5 783.369,-531.5 777.369,-531.5 777.369,-531.5 670.369,-531.5 670.369,-531.5 664.369,-531.5 658.369,-525.5 658.369,-519.5 658.369,-519.5 658.369,-362.5 658.369,-362.5 658.369,-356.5 664.369,-350.5 670.369,-350.5"/>
<text text-anchor="middle" x="723.869" y="-516.3" font-family="Times,serif" font-size="14.00">Event</text>
<polyline fill="none" stroke="black" points="658.369,-508.5 789.369,-508.5 "/>
<text text-anchor="start" x="666.369" y="-493.3" font-family="Times,serif" font-size="14.00">id :integer</text>
<text text-anchor="start" x="666.369" y="-478.3" font-family="Times,serif" font-size="14.00">name :string</text>
<text text-anchor="start" x="666.369" y="-463.3" font-family="Times,serif" font-size="14.00">description :text</text>
<text text-anchor="start" x="666.369" y="-448.3" font-family="Times,serif" font-size="14.00">color :string</text>
<text text-anchor="start" x="666.369" y="-433.3" font-family="Times,serif" font-size="14.00">start_date :datetime</text>
<text text-anchor="start" x="666.369" y="-418.3" font-family="Times,serif" font-size="14.00">end_date :datetime</text>
<text text-anchor="start" x="666.369" y="-403.3" font-family="Times,serif" font-size="14.00">trip_id :integer</text>
<text text-anchor="start" x="666.369" y="-388.3" font-family="Times,serif" font-size="14.00">created_at :datetime</text>
<text text-anchor="start" x="666.369" y="-373.3" font-family="Times,serif" font-size="14.00">updated_at :datetime</text>
<text text-anchor="start" x="666.369" y="-358.3" font-family="Times,serif" font-size="14.00">location :string</text>
</g>
<!-- ApiProvider -->
<g id="node10" class="node"><title>ApiProvider</title>
<path fill="none" stroke="black" d="M1104.37,-962.5C1104.37,-962.5 1165.37,-962.5 1165.37,-962.5 1171.37,-962.5 1177.37,-968.5 1177.37,-974.5 1177.37,-974.5 1177.37,-1011.5 1177.37,-1011.5 1177.37,-1017.5 1171.37,-1023.5 1165.37,-1023.5 1165.37,-1023.5 1104.37,-1023.5 1104.37,-1023.5 1098.37,-1023.5 1092.37,-1017.5 1092.37,-1011.5 1092.37,-1011.5 1092.37,-974.5 1092.37,-974.5 1092.37,-968.5 1098.37,-962.5 1104.37,-962.5"/>
<text text-anchor="middle" x="1134.87" y="-1008.3" font-family="Times,serif" font-size="14.00">ApiProvider</text>
<polyline fill="none" stroke="black" points="1092.37,-1000.5 1177.37,-1000.5 "/>
<text text-anchor="start" x="1100.37" y="-985.3" font-family="Times,serif" font-size="14.00">id :integer</text>
<text text-anchor="start" x="1100.37" y="-970.3" font-family="Times,serif" font-size="14.00">name :string</text>
</g>
<!-- Friendship -->
<g id="node11" class="node"><title>Friendship</title>
<path fill="none" stroke="black" d="M541.369,-630C541.369,-630 648.369,-630 648.369,-630 654.369,-630 660.369,-636 660.369,-642 660.369,-642 660.369,-724 660.369,-724 660.369,-730 654.369,-736 648.369,-736 648.369,-736 541.369,-736 541.369,-736 535.369,-736 529.369,-730 529.369,-724 529.369,-724 529.369,-642 529.369,-642 529.369,-636 535.369,-630 541.369,-630"/>
<text text-anchor="middle" x="594.869" y="-720.8" font-family="Times,serif" font-size="14.00">Friendship</text>
<polyline fill="none" stroke="black" points="529.369,-713 660.369,-713 "/>
<text text-anchor="start" x="537.369" y="-697.8" font-family="Times,serif" font-size="14.00">id :integer</text>
<text text-anchor="start" x="537.369" y="-682.8" font-family="Times,serif" font-size="14.00">user_id :integer</text>
<text text-anchor="start" x="537.369" y="-667.8" font-family="Times,serif" font-size="14.00">friend_id :integer</text>
<text text-anchor="start" x="537.369" y="-652.8" font-family="Times,serif" font-size="14.00">created_at :datetime</text>
<text text-anchor="start" x="537.369" y="-637.8" font-family="Times,serif" font-size="14.00">updated_at :datetime</text>
</g>
<!-- User -->
<g id="node12" class="node"><title>User</title>
<path fill="none" stroke="black" d="M380.869,-835C380.869,-835 556.869,-835 556.869,-835 562.869,-835 568.869,-841 568.869,-847 568.869,-847 568.869,-1139 568.869,-1139 568.869,-1145 562.869,-1151 556.869,-1151 556.869,-1151 380.869,-1151 380.869,-1151 374.869,-1151 368.869,-1145 368.869,-1139 368.869,-1139 368.869,-847 368.869,-847 368.869,-841 374.869,-835 380.869,-835"/>
<text text-anchor="middle" x="468.869" y="-1135.8" font-family="Times,serif" font-size="14.00">User</text>
<polyline fill="none" stroke="black" points="368.869,-1128 568.869,-1128 "/>
<text text-anchor="start" x="376.869" y="-1112.8" font-family="Times,serif" font-size="14.00">id :integer</text>
<text text-anchor="start" x="376.869" y="-1097.8" font-family="Times,serif" font-size="14.00">email :string</text>
<text text-anchor="start" x="376.869" y="-1082.8" font-family="Times,serif" font-size="14.00">encrypted_password :string</text>
<text text-anchor="start" x="376.869" y="-1067.8" font-family="Times,serif" font-size="14.00">name :string</text>
<text text-anchor="start" x="376.869" y="-1052.8" font-family="Times,serif" font-size="14.00">reset_password_token :string</text>
<text text-anchor="start" x="376.869" y="-1037.8" font-family="Times,serif" font-size="14.00">reset_password_sent_at :datetime</text>
<text text-anchor="start" x="376.869" y="-1022.8" font-family="Times,serif" font-size="14.00">remember_created_at :datetime</text>
<text text-anchor="start" x="376.869" y="-1007.8" font-family="Times,serif" font-size="14.00">sign_in_count :integer</text>
<text text-anchor="start" x="376.869" y="-992.8" font-family="Times,serif" font-size="14.00">current_sign_in_at :datetime</text>
<text text-anchor="start" x="376.869" y="-977.8" font-family="Times,serif" font-size="14.00">last_sign_in_at :datetime</text>
<text text-anchor="start" x="376.869" y="-962.8" font-family="Times,serif" font-size="14.00">current_sign_in_ip :string</text>
<text text-anchor="start" x="376.869" y="-947.8" font-family="Times,serif" font-size="14.00">last_sign_in_ip :string</text>
<text text-anchor="start" x="376.869" y="-932.8" font-family="Times,serif" font-size="14.00">created_at :datetime</text>
<text text-anchor="start" x="376.869" y="-917.8" font-family="Times,serif" font-size="14.00">updated_at :datetime</text>
<text text-anchor="start" x="376.869" y="-902.8" font-family="Times,serif" font-size="14.00">country :string</text>
<text text-anchor="start" x="376.869" y="-887.8" font-family="Times,serif" font-size="14.00">town :string</text>
<text text-anchor="start" x="376.869" y="-872.8" font-family="Times,serif" font-size="14.00">age :integer</text>
<text text-anchor="start" x="376.869" y="-857.8" font-family="Times,serif" font-size="14.00">status :string</text>
<text text-anchor="start" x="376.869" y="-842.8" font-family="Times,serif" font-size="14.00">image :text</text>
</g>
<!-- User&#45;&gt;ApiAccessToken -->
<g id="edge21" class="edge"><title>User&#45;&gt;ApiAccessToken</title>
<path fill="none" stroke="#0369e8" d="M363.128,-894.65C330.103,-860.976 295.2,-821.683 267.869,-782 203.141,-688.019 207.451,-652.78 157.869,-550 154.078,-542.141 150.112,-533.971 146.131,-525.8"/>
<ellipse fill="none" stroke="#0369e8" cx="366.029" cy="-897.59" rx="4.00002" ry="4.00002"/>
<polygon fill="#0369e8" stroke="#0369e8" points="146.023,-525.579 145.681,-514.618 143.83,-521.086 141.637,-516.592 141.637,-516.592 141.637,-516.592 143.83,-521.086 137.593,-518.566 146.023,-525.579 146.023,-525.579"/>
</g>
<!-- User&#45;&gt;Participant -->
<g id="edge20" class="edge"><title>User&#45;&gt;Participant</title>
<path fill="none" stroke="#66c274" d="M576.733,-954.281C655.608,-921.097 758.753,-864.999 817.869,-782 875.036,-701.736 888.566,-585.505 890.87,-511.864"/>
<ellipse fill="none" stroke="#66c274" cx="572.871" cy="-955.886" rx="4.00002" ry="4.00002"/>
<polygon fill="#66c274" stroke="#66c274" points="890.872,-511.761 895.622,-501.877 890.998,-506.762 891.124,-501.764 891.124,-501.764 891.124,-501.764 890.998,-506.762 886.625,-501.651 890.872,-511.761 890.872,-511.761"/>
</g>
<!-- User&#45;&gt;Friendship -->
<g id="edge13" class="edge"><title>User&#45;&gt;Friendship</title>
<path fill="none" stroke="#12c479" d="M536.243,-827.309C548.22,-798.031 559.985,-769.272 569.796,-745.29"/>
<ellipse fill="none" stroke="#12c479" cx="534.676" cy="-831.14" rx="4.00001" ry="4.00001"/>
<polygon fill="#12c479" stroke="#12c479" points="569.809,-745.258 577.76,-737.706 571.702,-740.63 573.595,-736.002 573.595,-736.002 573.595,-736.002 571.702,-740.63 569.43,-734.298 569.809,-745.258 569.809,-745.258"/>
</g>
<!-- User&#45;&gt;Friendship -->
<g id="edge15" class="edge"><title>User&#45;&gt;Friendship</title>
<path fill="none" stroke="#dfcf8c" d="M551.416,-827.097C552.944,-823.377 554.43,-819.675 555.869,-816 564.672,-793.516 572.602,-768.216 578.977,-745.826"/>
<ellipse fill="none" stroke="#dfcf8c" cx="549.765" cy="-831.062" rx="4.00001" ry="4.00001"/>
<polygon fill="#dfcf8c" stroke="#dfcf8c" points="579.005,-745.725 586.035,-737.309 580.354,-740.91 581.702,-736.096 581.702,-736.096 581.702,-736.096 580.354,-740.91 577.369,-734.882 579.005,-745.725 579.005,-745.725"/>
<text text-anchor="middle" x="613.869" y="-804.3" font-family="Times,serif" font-size="14.00">inverse_friendships</text>
</g>
<!-- User&#45;&gt;User -->
<g id="edge14" class="edge"><title>User&#45;&gt;User</title>
<path fill="none" stroke="#012be7" d="M578.784,-1003.47C583.883,-1000.83 586.869,-997.335 586.869,-993 586.869,-988.665 583.883,-985.175 578.784,-982.529"/>
<polygon fill="#012be7" stroke="#012be7" points="578.567,-1003.55 567.634,-1002.7 573.862,-1005.24 569.157,-1006.93 569.157,-1006.93 569.157,-1006.93 573.862,-1005.24 570.68,-1011.17 578.567,-1003.55 578.567,-1003.55"/>
<polygon fill="#012be7" stroke="#012be7" points="578.567,-982.451 570.68,-974.832 573.862,-980.759 569.157,-979.067 569.157,-979.067 569.157,-979.067 573.862,-980.759 567.634,-983.301 578.567,-982.451 578.567,-982.451"/>
<text text-anchor="middle" x="605.869" y="-989.3" font-family="Times,serif" font-size="14.00">friends</text>
</g>
<!-- User&#45;&gt;User -->
<g id="edge16" class="edge"><title>User&#45;&gt;User</title>
<path fill="none" stroke="#bbd12b" d="M579.187,-1025.54C605.269,-1022.57 624.869,-1011.73 624.869,-993 624.869,-974.272 605.269,-963.426 579.187,-960.461"/>
<polygon fill="#bbd12b" stroke="#bbd12b" points="578.874,-1025.56 568.573,-1021.8 573.887,-1025.93 568.9,-1026.29 568.9,-1026.29 568.9,-1026.29 573.887,-1025.93 569.228,-1030.78 578.874,-1025.56 578.874,-1025.56"/>
<polygon fill="#bbd12b" stroke="#bbd12b" points="578.874,-960.439 569.228,-955.223 573.887,-960.075 568.9,-959.711 568.9,-959.711 568.9,-959.711 573.887,-960.075 568.573,-964.199 578.874,-960.439 578.874,-960.439"/>
<text text-anchor="middle" x="666.869" y="-989.3" font-family="Times,serif" font-size="14.00">inverse_friends</text>
</g>
<!-- Request -->
<g id="node13" class="node"><title>Request</title>
<path fill="none" stroke="black" d="M690.369,-630C690.369,-630 797.369,-630 797.369,-630 803.369,-630 809.369,-636 809.369,-642 809.369,-642 809.369,-724 809.369,-724 809.369,-730 803.369,-736 797.369,-736 797.369,-736 690.369,-736 690.369,-736 684.369,-736 678.369,-730 678.369,-724 678.369,-724 678.369,-642 678.369,-642 678.369,-636 684.369,-630 690.369,-630"/>
<text text-anchor="middle" x="743.869" y="-720.8" font-family="Times,serif" font-size="14.00">Request</text>
<polyline fill="none" stroke="black" points="678.369,-713 809.369,-713 "/>
<text text-anchor="start" x="686.369" y="-697.8" font-family="Times,serif" font-size="14.00">id :integer</text>
<text text-anchor="start" x="686.369" y="-682.8" font-family="Times,serif" font-size="14.00">user_id :integer</text>
<text text-anchor="start" x="686.369" y="-667.8" font-family="Times,serif" font-size="14.00">receiver_id :integer</text>
<text text-anchor="start" x="686.369" y="-652.8" font-family="Times,serif" font-size="14.00">created_at :datetime</text>
<text text-anchor="start" x="686.369" y="-637.8" font-family="Times,serif" font-size="14.00">updated_at :datetime</text>
</g>
<!-- User&#45;&gt;Request -->
<g id="edge17" class="edge"><title>User&#45;&gt;Request</title>
<path fill="none" stroke="#8884b7" d="M575.023,-911.578C608.059,-883.525 643.073,-850.4 670.869,-816 688.16,-794.601 703.553,-768.536 715.694,-745.238"/>
<ellipse fill="none" stroke="#8884b7" cx="571.939" cy="-914.178" rx="4.00002" ry="4.00002"/>
<polygon fill="#8884b7" stroke="#8884b7" points="715.801,-745.028 724.36,-738.172 718.078,-740.576 720.354,-736.124 720.354,-736.124 720.354,-736.124 718.078,-740.576 716.347,-734.075 715.801,-745.028 715.801,-745.028"/>
</g>
<!-- Trip -->
<g id="node14" class="node"><title>Trip</title>
<path fill="none" stroke="black" d="M289.369,-585C289.369,-585 396.369,-585 396.369,-585 402.369,-585 408.369,-591 408.369,-597 408.369,-597 408.369,-769 408.369,-769 408.369,-775 402.369,-781 396.369,-781 396.369,-781 289.369,-781 289.369,-781 283.369,-781 277.369,-775 277.369,-769 277.369,-769 277.369,-597 277.369,-597 277.369,-591 283.369,-585 289.369,-585"/>
<text text-anchor="middle" x="342.869" y="-765.8" font-family="Times,serif" font-size="14.00">Trip</text>
<polyline fill="none" stroke="black" points="277.369,-758 408.369,-758 "/>
<text text-anchor="start" x="285.369" y="-742.8" font-family="Times,serif" font-size="14.00">id :integer</text>
<text text-anchor="start" x="285.369" y="-727.8" font-family="Times,serif" font-size="14.00">title :text</text>
<text text-anchor="start" x="285.369" y="-712.8" font-family="Times,serif" font-size="14.00">description :text</text>
<text text-anchor="start" x="285.369" y="-697.8" font-family="Times,serif" font-size="14.00">start_loc :text</text>
<text text-anchor="start" x="285.369" y="-682.8" font-family="Times,serif" font-size="14.00">end_loc :text</text>
<text text-anchor="start" x="285.369" y="-667.8" font-family="Times,serif" font-size="14.00">image :text</text>
<text text-anchor="start" x="285.369" y="-652.8" font-family="Times,serif" font-size="14.00">created_at :datetime</text>
<text text-anchor="start" x="285.369" y="-637.8" font-family="Times,serif" font-size="14.00">updated_at :datetime</text>
<text text-anchor="start" x="285.369" y="-622.8" font-family="Times,serif" font-size="14.00">start_date :text</text>
<text text-anchor="start" x="285.369" y="-607.8" font-family="Times,serif" font-size="14.00">end_date :text</text>
<text text-anchor="start" x="285.369" y="-592.8" font-family="Times,serif" font-size="14.00">user_id :integer</text>
</g>
<!-- User&#45;&gt;Trip -->
<g id="edge19" class="edge"><title>User&#45;&gt;Trip</title>
<path fill="none" stroke="#6f0cde" d="M401.431,-827.153C396.381,-814.808 391.369,-802.557 386.526,-790.718"/>
<ellipse fill="none" stroke="#6f0cde" cx="403.063" cy="-831.14" rx="4.00001" ry="4.00001"/>
<polygon fill="#6f0cde" stroke="#6f0cde" points="386.468,-790.574 386.846,-779.615 384.574,-785.946 382.681,-781.318 382.681,-781.318 382.681,-781.318 384.574,-785.946 378.516,-783.022 386.468,-790.574 386.468,-790.574"/>
</g>
<!-- Receiver -->
<g id="node16" class="node"><title>Receiver</title>
<ellipse fill="none" stroke="black" cx="468.869" cy="-683" rx="42.3701" ry="18"/>
<text text-anchor="middle" x="468.869" y="-679.3" font-family="Times,serif" font-size="14.00">Receiver</text>
</g>
<!-- User&#45;&gt;Receiver -->
<g id="edge18" class="edge"><title>User&#45;&gt;Receiver</title>
<path fill="none" stroke="#472400" d="M468.869,-824.788C468.869,-780.688 468.869,-738.044 468.869,-711.464"/>
<polygon fill="#472400" stroke="#472400" points="468.869,-824.842 464.369,-834.842 468.869,-829.842 468.869,-834.842 468.869,-834.842 468.869,-834.842 468.869,-829.842 473.369,-834.842 468.869,-824.842 468.869,-824.842"/>
<polygon fill="#472400" stroke="#472400" points="468.869,-711.431 473.369,-701.431 468.869,-706.431 468.869,-701.431 468.869,-701.431 468.869,-701.431 468.869,-706.431 464.369,-701.431 468.869,-711.431 468.869,-711.431"/>
</g>
<!-- Trip&#45;&gt;ApiAccessToken -->
<g id="edge30" class="edge"><title>Trip&#45;&gt;ApiAccessToken</title>
<path fill="none" stroke="#01a639" d="M290.094,-578.373C281.458,-567.693 271.725,-557.888 260.869,-550 233.835,-530.358 216.636,-549.002 187.869,-532 183.353,-529.331 178.937,-526.34 174.642,-523.114"/>
<ellipse fill="none" stroke="#01a639" cx="292.598" cy="-581.596" rx="4.00002" ry="4.00002"/>
<polygon fill="#01a639" stroke="#01a639" points="174.354,-522.884 169.348,-513.128 170.447,-519.764 166.54,-516.644 166.54,-516.644 166.54,-516.644 170.447,-519.764 163.732,-520.16 174.354,-522.884 174.354,-522.884"/>
</g>
<!-- Trip&#45;&gt;Participant -->
<g id="edge28" class="edge"><title>Trip&#45;&gt;Participant</title>
<path fill="none" stroke="#1b6c91" d="M415.495,-585.357C416.281,-584.893 417.072,-584.44 417.869,-584 456.157,-562.855 570.541,-571.98 613.869,-566 696.25,-554.63 724.05,-570.297 797.869,-532 809.839,-525.79 821.278,-517.506 831.772,-508.471"/>
<ellipse fill="none" stroke="#1b6c91" cx="411.939" cy="-587.665" rx="4.00002" ry="4.00002"/>
<polygon fill="#1b6c91" stroke="#1b6c91" points="831.793,-508.453 842.243,-505.13 835.516,-505.116 839.24,-501.779 839.24,-501.779 839.24,-501.779 835.516,-505.116 836.236,-498.428 831.793,-508.453 831.793,-508.453"/>
</g>
<!-- Trip&#45;&gt;EquipmentList -->
<g id="edge29" class="edge"><title>Trip&#45;&gt;EquipmentList</title>
<path fill="none" stroke="#02590e" d="M415.465,-585.301C416.26,-584.855 417.062,-584.421 417.869,-584 458.599,-562.766 785.078,-569.597 830.869,-566 964.204,-555.526 1012.15,-595.491 1129.87,-532 1137.59,-527.836 1144.84,-522.521 1151.55,-516.561"/>
<ellipse fill="none" stroke="#02590e" cx="411.874" cy="-587.531" rx="4.00002" ry="4.00002"/>
<polygon fill="#02590e" stroke="#02590e" points="1151.94,-516.191 1162.29,-512.559 1155.56,-512.745 1159.19,-509.298 1159.19,-509.298 1159.19,-509.298 1155.56,-512.745 1156.08,-506.038 1151.94,-516.191 1151.94,-516.191"/>
</g>
<!-- Trip&#45;&gt;Article -->
<g id="edge32" class="edge"><title>Trip&#45;&gt;Article</title>
<path fill="none" stroke="#383e96" d="M415.478,-585.325C416.269,-584.871 417.066,-584.429 417.869,-584 472.857,-554.608 635.781,-571.721 697.869,-566 824.017,-554.376 869.562,-592.491 980.869,-532 991.727,-526.099 1001.66,-517.93 1010.48,-508.901"/>
<ellipse fill="none" stroke="#383e96" cx="411.902" cy="-587.589" rx="4.00002" ry="4.00002"/>
<polygon fill="#383e96" stroke="#383e96" points="1010.54,-508.845 1020.63,-504.558 1013.93,-505.174 1017.33,-501.503 1017.33,-501.503 1017.33,-501.503 1013.93,-505.174 1014.02,-498.448 1010.54,-508.845 1010.54,-508.845"/>
</g>
<!-- Trip&#45;&gt;Event -->
<g id="edge31" class="edge"><title>Trip&#45;&gt;Event</title>
<path fill="none" stroke="#c15d4b" d="M415.508,-585.38C416.289,-584.908 417.076,-584.448 417.869,-584 480.551,-548.571 509.707,-586.019 578.869,-566 612.092,-556.384 621.633,-553.318 648.869,-532 649.47,-531.53 650.069,-531.054 650.666,-530.573"/>
<ellipse fill="none" stroke="#c15d4b" cx="411.967" cy="-587.72" rx="4.00002" ry="4.00002"/>
<polygon fill="#c15d4b" stroke="#c15d4b" points="650.722,-530.526 661.254,-527.473 654.53,-527.286 658.338,-524.046 658.338,-524.046 658.338,-524.046 654.53,-527.286 655.422,-520.618 650.722,-530.526 650.722,-530.526"/>
</g>
<!-- ActsAsTaggableOn::Tagging -->
<g id="node17" class="node"><title>ActsAsTaggableOn::Tagging</title>
<ellipse fill="none" stroke="black" cx="310.869" cy="-441" rx="114.085" ry="18"/>
<text text-anchor="middle" x="310.869" y="-437.3" font-family="Times,serif" font-size="14.00">ActsAsTaggableOn::Tagging</text>
</g>
<!-- Trip&#45;&gt;ActsAsTaggableOn::Tagging -->
<g id="edge24" class="edge"><title>Trip&#45;&gt;ActsAsTaggableOn::Tagging</title>
<path fill="none" stroke="#e50abb" d="M312.557,-576.887C311.922,-573.227 311.355,-569.591 310.869,-566 306.415,-533.108 307.326,-494.856 308.756,-469.633"/>
<ellipse fill="none" stroke="#e50abb" cx="313.32" cy="-580.994" rx="4.00001" ry="4.00001"/>
<polygon fill="#e50abb" stroke="#e50abb" points="308.775,-469.33 313.899,-459.635 309.092,-464.34 309.408,-459.35 309.408,-459.35 309.408,-459.35 309.092,-464.34 304.917,-459.065 308.775,-469.33 308.775,-469.33"/>
<text text-anchor="middle" x="333.869" y="-554.3" font-family="Times,serif" font-size="14.00">taggings</text>
</g>
<!-- Trip&#45;&gt;ActsAsTaggableOn::Tagging -->
<g id="edge26" class="edge"><title>Trip&#45;&gt;ActsAsTaggableOn::Tagging</title>
<path fill="none" stroke="#1dc559" d="M359.842,-576.456C359.538,-567.474 358.616,-558.557 356.869,-550 350.896,-520.736 336.686,-489.583 325.628,-468.294"/>
<ellipse fill="none" stroke="#1dc559" cx="359.9" cy="-580.715" rx="4" ry="4"/>
<polygon fill="#1dc559" stroke="#1dc559" points="325.511,-468.075 324.781,-457.134 323.161,-463.662 320.81,-459.25 320.81,-459.25 320.81,-459.25 323.161,-463.662 316.838,-461.365 325.511,-468.075 325.511,-468.075"/>
<text text-anchor="middle" x="394.869" y="-554.3" font-family="Times,serif" font-size="14.00">tag_taggings</text>
</g>
<!-- ActsAsTaggableOn::Tag -->
<g id="node18" class="node"><title>ActsAsTaggableOn::Tag</title>
<ellipse fill="none" stroke="black" cx="541.869" cy="-441" rx="98.1881" ry="18"/>
<text text-anchor="middle" x="541.869" y="-437.3" font-family="Times,serif" font-size="14.00">ActsAsTaggableOn::Tag</text>
</g>
<!-- Trip&#45;&gt;ActsAsTaggableOn::Tag -->
<g id="edge25" class="edge"><title>Trip&#45;&gt;ActsAsTaggableOn::Tag</title>
<path fill="none" stroke="#a5c283" d="M416.975,-584.561C417.272,-584.372 417.57,-584.185 417.869,-584 453.271,-562.032 479.547,-594.574 509.869,-566 536.269,-541.122 542.016,-497.588 542.712,-469.283"/>
<polygon fill="#a5c283" stroke="#a5c283" points="416.756,-584.715 405.985,-586.775 412.663,-587.587 408.57,-590.459 408.57,-590.459 408.57,-590.459 412.663,-587.587 411.155,-594.142 416.756,-584.715 416.756,-584.715"/>
<polygon fill="#a5c283" stroke="#a5c283" points="542.712,-469.25 547.264,-459.274 542.738,-464.251 542.764,-459.251 542.764,-459.251 542.764,-459.251 542.738,-464.251 538.264,-459.227 542.712,-469.25 542.712,-469.25"/>
<text text-anchor="middle" x="548.369" y="-554.3" font-family="Times,serif" font-size="14.00">base_tags</text>
</g>
<!-- Trip&#45;&gt;ActsAsTaggableOn::Tag -->
<g id="edge27" class="edge"><title>Trip&#45;&gt;ActsAsTaggableOn::Tag</title>
<path fill="none" stroke="#97961f" d="M414.982,-587.515C415.948,-586.334 416.91,-585.162 417.869,-584 424.682,-575.744 426.798,-574.036 433.869,-566 464.159,-531.575 498.954,-491.535 520.678,-466.478"/>
<polygon fill="#97961f" stroke="#97961f" points="414.872,-587.649 405.079,-592.584 411.724,-591.534 408.575,-595.418 408.575,-595.418 408.575,-595.418 411.724,-591.534 412.071,-598.251 414.872,-587.649 414.872,-587.649"/>
<polygon fill="#97961f" stroke="#97961f" points="520.7,-466.452 530.65,-461.842 523.975,-462.673 527.249,-458.895 527.249,-458.895 527.249,-458.895 523.975,-462.673 523.848,-455.948 520.7,-466.452 520.7,-466.452"/>
<text text-anchor="middle" x="455.869" y="-554.3" font-family="Times,serif" font-size="14.00">tags</text>
</g>
<!-- ActiveRecord::Base -->
<g id="node15" class="node"><title>ActiveRecord::Base</title>
<ellipse fill="none" stroke="black" cx="837.869" cy="-1229" rx="81.3646" ry="18"/>
<text text-anchor="middle" x="837.869" y="-1225.3" font-family="Times,serif" font-size="14.00">ActiveRecord::Base</text>
</g>
<!-- ActiveRecord::Base&#45;&gt;ApiAccessToken -->
<g id="edge1" class="edge"><title>ActiveRecord::Base&#45;&gt;ApiAccessToken</title>
<path fill="none" stroke="black" d="M807.579,-1212.24C790.282,-1204.04 767.908,-1194.76 746.869,-1190 647.048,-1167.4 364.021,-1220.38 287.869,-1152 103.656,-986.581 93.7249,-662.678 99.5846,-516.6"/>
</g>
<!-- ActiveRecord::Base&#45;&gt;Participant -->
<g id="edge2" class="edge"><title>ActiveRecord::Base&#45;&gt;Participant</title>
<path fill="none" stroke="black" d="M899.702,-1217.34C937.338,-1207.32 982.526,-1188.18 1005.87,-1152 1082.49,-1033.24 1026.13,-973.873 1005.87,-834 988.343,-713.012 941.885,-577.368 913.364,-501.566"/>
</g>
<!-- ActiveRecord::Base&#45;&gt;EquipmentList -->
<g id="edge4" class="edge"><title>ActiveRecord::Base&#45;&gt;EquipmentList</title>
<path fill="none" stroke="black" d="M913.137,-1222.21C1004.83,-1213.43 1151.77,-1193.21 1185.87,-1152 1340.24,-965.441 1268.96,-647.314 1227.38,-509.244"/>
</g>
<!-- ActiveRecord::Base&#45;&gt;ParticipantRole -->
<g id="edge5" class="edge"><title>ActiveRecord::Base&#45;&gt;ParticipantRole</title>
<path fill="none" stroke="black" d="M844.781,-1210.79C859.197,-1174.91 892.87,-1091.08 913.868,-1038.81"/>
</g>
<!-- ActiveRecord::Base&#45;&gt;EquipmentItem -->
<g id="edge7" class="edge"><title>ActiveRecord::Base&#45;&gt;EquipmentItem</title>
<path fill="none" stroke="black" d="M807.594,-1212.17C790.301,-1203.96 767.928,-1194.68 746.869,-1190 610.82,-1159.77 242.107,-1220.74 120.869,-1152 44.6256,-1108.77 2.86904,-1081.64 2.86904,-994 2.86904,-994 2.86904,-994 2.86904,-440 2.86904,-399.118 -8.60712,-377.249 21.869,-350 102.904,-277.546 860.105,-247.39 1110.74,-239.34"/>
</g>
<!-- ActiveRecord::Base&#45;&gt;Article -->
<g id="edge8" class="edge"><title>ActiveRecord::Base&#45;&gt;Article</title>
<path fill="none" stroke="black" d="M912.842,-1222.1C958.585,-1214.02 1013.07,-1195.26 1038.87,-1152 1103.73,-1043.26 1075.46,-652.037 1061.75,-501.558"/>
</g>
<!-- ActiveRecord::Base&#45;&gt;Event -->
<g id="edge9" class="edge"><title>ActiveRecord::Base&#45;&gt;Event</title>
<path fill="none" stroke="black" d="M832.382,-1210.55C829.222,-1199.6 825.552,-1185.12 823.869,-1172 790.614,-912.777 894.472,-833.869 817.869,-584 811.543,-563.366 801.181,-542.953 789.6,-524.313"/>
</g>
<!-- ActiveRecord::Base&#45;&gt;EquipmentAssignment -->
<g id="edge10" class="edge"><title>ActiveRecord::Base&#45;&gt;EquipmentAssignment</title>
<path fill="none" stroke="black" d="M915.223,-1223.5C1020.24,-1215.79 1200.22,-1196.35 1246.87,-1152 1300.45,-1101.06 1298.87,-1067.93 1298.87,-994 1298.87,-994 1298.87,-994 1298.87,-235 1298.87,-196.78 1291,-154.637 1282.95,-121.516"/>
</g>
<!-- ActiveRecord::Base&#45;&gt;ApiProvider -->
<g id="edge11" class="edge"><title>ActiveRecord::Base&#45;&gt;ApiProvider</title>
<path fill="none" stroke="black" d="M907.005,-1219.53C968.777,-1210.62 1053.22,-1194.74 1077.87,-1172 1119.97,-1133.17 1131.11,-1063.27 1133.97,-1023.6"/>
</g>
<!-- ActiveRecord::Base&#45;&gt;Friendship -->
<g id="edge12" class="edge"><title>ActiveRecord::Base&#45;&gt;Friendship</title>
<path fill="none" stroke="black" d="M817.382,-1211.48C806.219,-1201.31 793.219,-1187.31 785.869,-1172 720.142,-1035.1 812.005,-965.392 735.869,-834 717.146,-801.689 696.089,-808.591 669.869,-782 656.105,-768.041 642.599,-751.541 630.925,-736.1"/>
</g>
<!-- ActiveRecord::Base&#45;&gt;User -->
<g id="edge22" class="edge"><title>ActiveRecord::Base&#45;&gt;User</title>
<path fill="none" stroke="black" d="M809.184,-1212C789.744,-1201.02 763.559,-1185.96 740.869,-1172 683.308,-1136.59 620.082,-1095.36 569.085,-1061.5"/>
</g>
<!-- ActiveRecord::Base&#45;&gt;Request -->
<g id="edge23" class="edge"><title>ActiveRecord::Base&#45;&gt;Request</title>
<path fill="none" stroke="black" d="M834.901,-1210.82C822.34,-1138.13 773.27,-854.15 752.856,-736.007"/>
</g>
<!-- ActiveRecord::Base&#45;&gt;Trip -->
<g id="edge33" class="edge"><title>ActiveRecord::Base&#45;&gt;Trip</title>
<path fill="none" stroke="black" d="M806.657,-1212.25C789.45,-1204.26 767.456,-1195.18 746.869,-1190 663.072,-1168.9 419.063,-1214.96 359.869,-1152 267.696,-1053.97 287.595,-887.093 313.183,-781.357"/>
</g>
</g>
</svg>
