<?xml version="1.0" encoding="UTF-8" standalone="no"?>
<!DOCTYPE svg PUBLIC "-//W3C//DTD SVG 1.1//EN"
 "http://www.w3.org/Graphics/SVG/1.1/DTD/svg11.dtd">
<!-- Generated by graphviz version 2.36.0 (20140111.2315)
 -->
<!-- Title: models_diagram Pages: 1 -->
<svg width="1163pt" height="484pt"
 viewBox="0.00 0.00 1163.00 484.00" xmlns="http://www.w3.org/2000/svg" xmlns:xlink="http://www.w3.org/1999/xlink">
<g id="graph0" class="graph" transform="scale(1 1) rotate(0) translate(4 480)">
<title>models_diagram</title>
<polygon fill="white" stroke="none" points="-4,4 -4,-480 1159,-480 1159,4 -4,4"/>
<!-- _diagram_info -->
<g id="node1" class="node"><title>_diagram_info</title>
<text text-anchor="start" x="360" y="-461.6" font-family="Times,serif" font-size="13.00">Models diagram</text>
<text text-anchor="start" x="360" y="-447.6" font-family="Times,serif" font-size="13.00">Date: May 05 2015 &#45; 12:54</text>
<text text-anchor="start" x="360" y="-433.6" font-family="Times,serif" font-size="13.00">Migration version: 20150407093413</text>
<text text-anchor="start" x="360" y="-419.6" font-family="Times,serif" font-size="13.00">Generated by RailRoady 1.3.0</text>
<text text-anchor="start" x="360" y="-405.6" font-family="Times,serif" font-size="13.00">http://railroady.prestonlee.com</text>
</g>
<!-- ApiAccessToken -->
<g id="node2" class="node"><title>ApiAccessToken</title>
<ellipse fill="none" stroke="black" cx="99" cy="-166" rx="71.2405" ry="18"/>
<text text-anchor="middle" x="99" y="-162.3" font-family="Times,serif" font-size="14.00">ApiAccessToken</text>
</g>
<!-- Participant -->
<g id="node3" class="node"><title>Participant</title>
<ellipse fill="none" stroke="black" cx="780" cy="-166" rx="48.6179" ry="18"/>
<text text-anchor="middle" x="780" y="-162.3" font-family="Times,serif" font-size="14.00">Participant</text>
</g>
<!-- EquipmentList -->
<g id="node4" class="node"><title>EquipmentList</title>
<ellipse fill="none" stroke="black" cx="999" cy="-166" rx="63.5411" ry="18"/>
<text text-anchor="middle" x="999" y="-162.3" font-family="Times,serif" font-size="14.00">EquipmentList</text>
</g>
<!-- EquipmentItem -->
<g id="node6" class="node"><title>EquipmentItem</title>
<ellipse fill="none" stroke="black" cx="999" cy="-92" rx="65.9423" ry="18"/>
<text text-anchor="middle" x="999" y="-88.3" font-family="Times,serif" font-size="14.00">EquipmentItem</text>
</g>
<!-- EquipmentList&#45;&gt;EquipmentItem -->
<g id="edge3" class="edge"><title>EquipmentList&#45;&gt;EquipmentItem</title>
<path fill="none" stroke="#b79e27" d="M999,-139.792C999,-133.58 999,-126.896 999,-120.579"/>
<ellipse fill="none" stroke="#b79e27" cx="999" cy="-143.937" rx="4" ry="4"/>
<polygon fill="#b79e27" stroke="#b79e27" points="999,-120.441 1003.5,-110.441 999,-115.441 999,-110.441 999,-110.441 999,-110.441 999,-115.441 994.5,-110.441 999,-120.441 999,-120.441"/>
</g>
<!-- ParticipantRole -->
<g id="node5" class="node"><title>ParticipantRole</title>
<ellipse fill="none" stroke="black" cx="759" cy="-342" rx="65.4659" ry="18"/>
<text text-anchor="middle" x="759" y="-338.3" font-family="Times,serif" font-size="14.00">ParticipantRole</text>
</g>
<!-- EquipmentAssignment -->
<g id="node9" class="node"><title>EquipmentAssignment</title>
<ellipse fill="none" stroke="black" cx="1063" cy="-18" rx="91.9385" ry="18"/>
<text text-anchor="middle" x="1063" y="-14.3" font-family="Times,serif" font-size="14.00">EquipmentAssignment</text>
</g>
<!-- EquipmentItem&#45;&gt;EquipmentAssignment -->
<g id="edge6" class="edge"><title>EquipmentItem&#45;&gt;EquipmentAssignment</title>
<path fill="none" stroke="#c85fe3" d="M1019.36,-68.0974C1026.27,-60.3189 1034.03,-51.5959 1041.06,-43.6845"/>
<ellipse fill="none" stroke="#c85fe3" cx="1016.5" cy="-71.3111" rx="4.00002" ry="4.00002"/>
<polygon fill="#c85fe3" stroke="#c85fe3" points="1041.15,-43.5828 1051.16,-39.0983 1044.47,-39.8457 1047.79,-36.1086 1047.79,-36.1086 1047.79,-36.1086 1044.47,-39.8457 1044.43,-33.119 1041.15,-43.5828 1041.15,-43.5828"/>
</g>
<!-- Article -->
<g id="node7" class="node"><title>Article</title>
<ellipse fill="none" stroke="black" cx="882" cy="-166" rx="35.1455" ry="18"/>
<text text-anchor="middle" x="882" y="-162.3" font-family="Times,serif" font-size="14.00">Article</text>
</g>
<!-- Event -->
<g id="node8" class="node"><title>Event</title>
<ellipse fill="none" stroke="black" cx="682" cy="-166" rx="31.2965" ry="18"/>
<text text-anchor="middle" x="682" y="-162.3" font-family="Times,serif" font-size="14.00">Event</text>
</g>
<!-- ApiProvider -->
<g id="node10" class="node"><title>ApiProvider</title>
<ellipse fill="none" stroke="black" cx="973" cy="-342" rx="53.4184" ry="18"/>
<text text-anchor="middle" x="973" y="-338.3" font-family="Times,serif" font-size="14.00">ApiProvider</text>
</g>
<!-- Friendship -->
<g id="node11" class="node"><title>Friendship</title>
<ellipse fill="none" stroke="black" cx="497" cy="-254" rx="48.1437" ry="18"/>
<text text-anchor="middle" x="497" y="-250.3" font-family="Times,serif" font-size="14.00">Friendship</text>
</g>
<!-- User -->
<g id="node12" class="node"><title>User</title>
<ellipse fill="none" stroke="black" cx="376" cy="-342" rx="26.949" ry="18"/>
<text text-anchor="middle" x="376" y="-338.3" font-family="Times,serif" font-size="14.00">User</text>
</g>
<!-- User&#45;&gt;ApiAccessToken -->
<g id="edge21" class="edge"><title>User&#45;&gt;ApiAccessToken</title>
<path fill="none" stroke="#a5de72" d="M350.077,-324.75C327.783,-310.772 294.768,-290.067 266,-272 219.808,-242.991 166.453,-209.436 132.727,-188.22"/>
<ellipse fill="none" stroke="#a5de72" cx="353.53" cy="-326.915" rx="4.00002" ry="4.00002"/>
<polygon fill="#a5de72" stroke="#a5de72" points="132.639,-188.165 126.571,-179.031 128.407,-185.503 124.175,-182.84 124.175,-182.84 124.175,-182.84 128.407,-185.503 121.779,-186.649 132.639,-188.165 132.639,-188.165"/>
</g>
<!-- User&#45;&gt;Participant -->
<g id="edge20" class="edge"><title>User&#45;&gt;Participant</title>
<path fill="none" stroke="#fca3c9" d="M410.904,-338.5C452.897,-334.73 525.102,-325.801 584,-306 614.903,-295.611 621.708,-289.834 649,-272 687.749,-246.679 728.837,-212.365 754.449,-189.961"/>
<ellipse fill="none" stroke="#fca3c9" cx="406.906" cy="-338.844" rx="4" ry="4"/>
<polygon fill="#fca3c9" stroke="#fca3c9" points="754.695,-189.744 765.173,-186.508 758.446,-186.438 762.198,-183.132 762.198,-183.132 762.198,-183.132 758.446,-186.438 759.222,-179.756 754.695,-189.744 754.695,-189.744"/>
</g>
<!-- User&#45;&gt;Friendship -->
<g id="edge13" class="edge"><title>User&#45;&gt;Friendship</title>
<path fill="none" stroke="#b31ea0" d="M396.342,-320.235C406.54,-310.426 419.382,-298.938 432,-290 440.471,-283.999 450.089,-278.292 459.28,-273.293"/>
<ellipse fill="none" stroke="#b31ea0" cx="393.219" cy="-323.291" rx="4.00002" ry="4.00002"/>
<polygon fill="#b31ea0" stroke="#b31ea0" points="459.428,-273.215 470.372,-272.525 463.849,-270.88 468.27,-268.545 468.27,-268.545 468.27,-268.545 463.849,-270.88 466.169,-264.566 459.428,-273.215 459.428,-273.215"/>
</g>
<!-- User&#45;&gt;Friendship -->
<g id="edge15" class="edge"><title>User&#45;&gt;Friendship</title>
<path fill="none" stroke="#bffcfc" d="M402.697,-325.118C412.101,-319.314 422.652,-312.56 432,-306 444.849,-296.982 458.591,-286.355 470.114,-277.141"/>
<ellipse fill="none" stroke="#bffcfc" cx="399.182" cy="-327.266" rx="4.00002" ry="4.00002"/>
<polygon fill="#bffcfc" stroke="#bffcfc" points="470.285,-277.004 480.893,-274.228 474.176,-273.865 478.068,-270.726 478.068,-270.726 478.068,-270.726 474.176,-273.865 475.243,-267.223 470.285,-277.004 470.285,-277.004"/>
<text text-anchor="middle" x="505" y="-294.3" font-family="Times,serif" font-size="14.00">inverse_friendships</text>
</g>
<!-- User&#45;&gt;User -->
<g id="edge14" class="edge"><title>User&#45;&gt;User</title>
<path fill="none" stroke="#5f9735" d="M412.943,-344.972C417.789,-344.463 421,-343.472 421,-342 421,-340.528 417.789,-339.537 412.943,-339.028"/>
<polygon fill="#5f9735" stroke="#5f9735" points="412.787,-344.978 402.619,-340.871 407.791,-345.173 402.795,-345.368 402.795,-345.368 402.795,-345.368 407.791,-345.173 402.97,-349.864 412.787,-344.978 412.787,-344.978"/>
<polygon fill="#5f9735" stroke="#5f9735" points="412.787,-339.022 402.97,-334.136 407.791,-338.827 402.795,-338.632 402.795,-338.632 402.795,-338.632 407.791,-338.827 402.619,-343.129 412.787,-339.022 412.787,-339.022"/>
<text text-anchor="middle" x="440" y="-338.3" font-family="Times,serif" font-size="14.00">friends</text>
</g>
<!-- User&#45;&gt;User -->
<g id="edge16" class="edge"><title>User&#45;&gt;User</title>
<path fill="none" stroke="#9bb99b" d="M412.128,-348.366C435.222,-349.696 459,-347.574 459,-342 459,-336.426 435.222,-334.304 412.128,-335.634"/>
<polygon fill="#9bb99b" stroke="#9bb99b" points="411.968,-348.353 402.363,-343.063 406.984,-347.951 402.001,-347.549 402.001,-347.549 402.001,-347.549 406.984,-347.951 401.639,-352.034 411.968,-348.353 411.968,-348.353"/>
<polygon fill="#9bb99b" stroke="#9bb99b" points="411.968,-335.647 401.639,-331.966 406.984,-336.049 402.001,-336.451 402.001,-336.451 402.001,-336.451 406.984,-336.049 402.363,-340.937 411.968,-335.647 411.968,-335.647"/>
<text text-anchor="middle" x="501" y="-338.3" font-family="Times,serif" font-size="14.00">inverse_friends</text>
</g>
<!-- Request -->
<g id="node13" class="node"><title>Request</title>
<ellipse fill="none" stroke="black" cx="602" cy="-254" rx="38.4949" ry="18"/>
<text text-anchor="middle" x="602" y="-250.3" font-family="Times,serif" font-size="14.00">Request</text>
</g>
<!-- User&#45;&gt;Request -->
<g id="edge17" class="edge"><title>User&#45;&gt;Request</title>
<path fill="none" stroke="#2860ed" d="M411.389,-341.566C450.874,-340.64 515.331,-334.347 562,-306 572.309,-299.738 580.997,-289.779 587.615,-280.317"/>
<ellipse fill="none" stroke="#2860ed" cx="407.357" cy="-341.628" rx="4" ry="4"/>
<polygon fill="#2860ed" stroke="#2860ed" points="587.646,-280.27 596.87,-274.34 590.372,-276.078 593.098,-271.887 593.098,-271.887 593.098,-271.887 590.372,-276.078 589.326,-269.434 587.646,-280.27 587.646,-280.27"/>
</g>
<!-- Trip -->
<g id="node14" class="node"><title>Trip</title>
<ellipse fill="none" stroke="black" cx="302" cy="-254" rx="27" ry="18"/>
<text text-anchor="middle" x="302" y="-250.3" font-family="Times,serif" font-size="14.00">Trip</text>
</g>
<!-- User&#45;&gt;Trip -->
<g id="edge19" class="edge"><title>User&#45;&gt;Trip</title>
<path fill="none" stroke="#631fb3" d="M357.722,-319.758C346.738,-306.992 332.764,-290.753 321.558,-277.73"/>
<ellipse fill="none" stroke="#631fb3" cx="360.501" cy="-322.988" rx="4.00002" ry="4.00002"/>
<polygon fill="#631fb3" stroke="#631fb3" points="321.513,-277.677 318.401,-267.162 318.252,-273.887 314.99,-270.097 314.99,-270.097 314.99,-270.097 318.252,-273.887 311.579,-273.032 321.513,-277.677 321.513,-277.677"/>
</g>
<!-- Receiver -->
<g id="node16" class="node"><title>Receiver</title>
<ellipse fill="none" stroke="black" cx="389" cy="-254" rx="42.3701" ry="18"/>
<text text-anchor="middle" x="389" y="-250.3" font-family="Times,serif" font-size="14.00">Receiver</text>
</g>
<!-- User&#45;&gt;Receiver -->
<g id="edge18" class="edge"><title>User&#45;&gt;Receiver</title>
<path fill="none" stroke="#eff826" d="M380.118,-313.756C381.643,-303.667 383.372,-292.235 384.895,-282.153"/>
<polygon fill="#eff826" stroke="#eff826" points="380.063,-314.121 374.119,-323.337 379.316,-319.065 378.568,-324.009 378.568,-324.009 378.568,-324.009 379.316,-319.065 383.018,-324.682 380.063,-314.121 380.063,-314.121"/>
<polygon fill="#eff826" stroke="#eff826" points="384.898,-282.138 390.842,-272.923 385.645,-277.194 386.392,-272.25 386.392,-272.25 386.392,-272.25 385.645,-277.194 381.943,-271.577 384.898,-282.138 384.898,-282.138"/>
</g>
<!-- Trip&#45;&gt;ApiAccessToken -->
<g id="edge30" class="edge"><title>Trip&#45;&gt;ApiAccessToken</title>
<path fill="none" stroke="#b391ed" d="M286.93,-230.731C278.898,-220.504 268.166,-209.098 256,-202 253.825,-200.731 204.244,-189.778 161.377,-180.458"/>
<ellipse fill="none" stroke="#b391ed" cx="289.404" cy="-234.026" rx="4.00002" ry="4.00002"/>
<polygon fill="#b391ed" stroke="#b391ed" points="161.28,-180.437 152.462,-173.917 156.394,-179.376 151.507,-178.315 151.507,-178.315 151.507,-178.315 156.394,-179.376 150.553,-182.712 161.28,-180.437 161.28,-180.437"/>
</g>
<!-- Trip&#45;&gt;Participant -->
<g id="edge28" class="edge"><title>Trip&#45;&gt;Participant</title>
<path fill="none" stroke="#69ab98" d="M329.671,-238.694C332.435,-237.643 335.24,-236.716 338,-236 453.978,-205.892 489.044,-239.068 607,-218 652.169,-209.932 702.311,-194.391 736.933,-182.575"/>
<ellipse fill="none" stroke="#69ab98" cx="325.745" cy="-240.355" rx="4.00002" ry="4.00002"/>
<polygon fill="#69ab98" stroke="#69ab98" points="737.261,-182.461 748.183,-183.448 741.987,-180.828 746.713,-179.195 746.713,-179.195 746.713,-179.195 741.987,-180.828 745.243,-174.942 737.261,-182.461 737.261,-182.461"/>
</g>
<!-- Trip&#45;&gt;EquipmentList -->
<g id="edge29" class="edge"><title>Trip&#45;&gt;EquipmentList</title>
<path fill="none" stroke="#f90e70" d="M329.656,-238.636C332.424,-237.597 335.233,-236.689 338,-236 421.113,-215.313 637.835,-227.09 723,-218 813.962,-208.291 836.297,-201.938 926,-184 931.343,-182.931 936.892,-181.758 942.435,-180.542"/>
<ellipse fill="none" stroke="#f90e70" cx="325.729" cy="-240.287" rx="4.00001" ry="4.00001"/>
<polygon fill="#f90e70" stroke="#f90e70" points="942.604,-180.504 953.345,-182.712 947.484,-179.412 952.363,-178.321 952.363,-178.321 952.363,-178.321 947.484,-179.412 951.381,-173.929 942.604,-180.504 942.604,-180.504"/>
</g>
<!-- Trip&#45;&gt;Article -->
<g id="edge32" class="edge"><title>Trip&#45;&gt;Article</title>
<path fill="none" stroke="#89f15e" d="M329.664,-238.665C332.429,-237.62 335.237,-236.703 338,-236 474.332,-201.328 514.345,-234.882 654,-218 736.127,-208.072 757.326,-206.261 837,-184 839.961,-183.173 843.001,-182.232 846.036,-181.227"/>
<ellipse fill="none" stroke="#89f15e" cx="325.737" cy="-240.321" rx="4.00002" ry="4.00002"/>
<polygon fill="#89f15e" stroke="#89f15e" points="846.176,-181.178 857.102,-182.107 850.893,-179.52 855.61,-177.862 855.61,-177.862 855.61,-177.862 850.893,-179.52 854.117,-173.616 846.176,-181.178 846.176,-181.178"/>
</g>
<!-- Trip&#45;&gt;Event -->
<g id="edge31" class="edge"><title>Trip&#45;&gt;Event</title>
<path fill="none" stroke="#bc44b1" d="M329.679,-238.724C332.442,-237.667 335.244,-236.731 338,-236 438.396,-209.385 470.466,-244.088 571,-218 599.61,-210.576 629.969,-196.119 651.692,-184.487"/>
<ellipse fill="none" stroke="#bc44b1" cx="325.754" cy="-240.39" rx="4.00002" ry="4.00002"/>
<polygon fill="#bc44b1" stroke="#bc44b1" points="651.962,-184.34 662.895,-183.489 656.348,-181.94 660.735,-179.541 660.735,-179.541 660.735,-179.541 656.348,-181.94 658.576,-175.593 651.962,-184.34 651.962,-184.34"/>
</g>
<!-- ActsAsTaggableOn::Tagging -->
<g id="node17" class="node"><title>ActsAsTaggableOn::Tagging</title>
<ellipse fill="none" stroke="black" cx="303" cy="-166" rx="114.085" ry="18"/>
<text text-anchor="middle" x="303" y="-162.3" font-family="Times,serif" font-size="14.00">ActsAsTaggableOn::Tagging</text>
</g>
<!-- Trip&#45;&gt;ActsAsTaggableOn::Tagging -->
<g id="edge24" class="edge"><title>Trip&#45;&gt;ActsAsTaggableOn::Tagging</title>
<path fill="none" stroke="#be21b4" d="M302.298,-227.339C302.42,-216.855 302.561,-204.718 302.685,-194.091"/>
<ellipse fill="none" stroke="#be21b4" cx="302.249" cy="-231.597" rx="4" ry="4"/>
<polygon fill="#be21b4" stroke="#be21b4" points="302.685,-194.083 307.301,-184.136 302.743,-189.084 302.801,-184.084 302.801,-184.084 302.801,-184.084 302.743,-189.084 298.302,-184.032 302.685,-194.083 302.685,-194.083"/>
<text text-anchor="middle" x="326" y="-206.3" font-family="Times,serif" font-size="14.00">taggings</text>
</g>
<!-- Trip&#45;&gt;ActsAsTaggableOn::Tagging -->
<g id="edge26" class="edge"><title>Trip&#45;&gt;ActsAsTaggableOn::Tagging</title>
<path fill="none" stroke="#d1b8cf" d="M330.788,-238.569C338.434,-233.223 345.741,-226.376 350,-218 355.201,-207.77 350.015,-198.088 341.454,-189.964"/>
<ellipse fill="none" stroke="#d1b8cf" cx="327.121" cy="-240.907" rx="4.00002" ry="4.00002"/>
<polygon fill="#d1b8cf" stroke="#d1b8cf" points="341.349,-189.878 336.481,-180.052 337.486,-186.703 333.624,-183.529 333.624,-183.529 333.624,-183.529 337.486,-186.703 330.766,-187.005 341.349,-189.878 341.349,-189.878"/>
<text text-anchor="middle" x="388" y="-206.3" font-family="Times,serif" font-size="14.00">tag_taggings</text>
</g>
<!-- ActsAsTaggableOn::Tag -->
<g id="node18" class="node"><title>ActsAsTaggableOn::Tag</title>
<ellipse fill="none" stroke="black" cx="534" cy="-166" rx="98.1881" ry="18"/>
<text text-anchor="middle" x="534" y="-162.3" font-family="Times,serif" font-size="14.00">ActsAsTaggableOn::Tag</text>
</g>
<!-- Trip&#45;&gt;ActsAsTaggableOn::Tag -->
<g id="edge25" class="edge"><title>Trip&#45;&gt;ActsAsTaggableOn::Tag</title>
<path fill="none" stroke="#08a522" d="M332.12,-237.916C334.085,-237.201 336.055,-236.553 338,-236 406.408,-216.554 435.565,-253.827 497,-218 507.025,-212.154 515.096,-202.394 521.11,-192.968"/>
<polygon fill="#08a522" stroke="#08a522" points="331.726,-238.08 320.765,-237.754 327.108,-239.995 322.489,-241.911 322.489,-241.911 322.489,-241.911 327.108,-239.995 324.213,-246.068 331.726,-238.08 331.726,-238.08"/>
<polygon fill="#08a522" stroke="#08a522" points="521.203,-192.809 530.129,-186.441 523.723,-188.491 526.243,-184.172 526.243,-184.172 526.243,-184.172 523.723,-188.491 522.356,-181.904 521.203,-192.809 521.203,-192.809"/>
<text text-anchor="middle" x="540.5" y="-206.3" font-family="Times,serif" font-size="14.00">base_tags</text>
</g>
<!-- Trip&#45;&gt;ActsAsTaggableOn::Tag -->
<g id="edge27" class="edge"><title>Trip&#45;&gt;ActsAsTaggableOn::Tag</title>
<path fill="none" stroke="#41f77b" d="M332.181,-238.114C334.131,-237.35 336.081,-236.637 338,-236 376.303,-223.291 388.72,-230.778 427,-218 450.592,-210.125 475.756,-198.319 495.751,-188.048"/>
<polygon fill="#41f77b" stroke="#41f77b" points="331.777,-238.287 320.812,-238.101 327.183,-240.261 322.589,-242.235 322.589,-242.235 322.589,-242.235 327.183,-240.261 324.366,-246.37 331.777,-238.287 331.777,-238.287"/>
<polygon fill="#41f77b" stroke="#41f77b" points="495.97,-187.934 506.917,-187.295 500.402,-185.62 504.834,-183.306 504.834,-183.306 504.834,-183.306 500.402,-185.62 502.752,-179.317 495.97,-187.934 495.97,-187.934"/>
<text text-anchor="middle" x="477" y="-206.3" font-family="Times,serif" font-size="14.00">tags</text>
</g>
<!-- ActiveRecord::Base -->
<g id="node15" class="node"><title>ActiveRecord::Base</title>
<ellipse fill="none" stroke="black" cx="665" cy="-437" rx="81.3646" ry="18"/>
<text text-anchor="middle" x="665" y="-433.3" font-family="Times,serif" font-size="14.00">ActiveRecord::Base</text>
</g>
<!-- ActiveRecord::Base&#45;&gt;ApiAccessToken -->
<g id="edge1" class="edge"><title>ActiveRecord::Base&#45;&gt;ApiAccessToken</title>
<path fill="none" stroke="black" d="M634.23,-420.331C616.97,-412.269 594.787,-403.09 574,-398 459.713,-370.016 413.12,-420.161 312,-360 226.657,-309.226 145.288,-220.767 113.284,-183.892"/>
</g>
<!-- ActiveRecord::Base&#45;&gt;Participant -->
<g id="edge2" class="edge"><title>ActiveRecord::Base&#45;&gt;Participant</title>
<path fill="none" stroke="black" d="M726.833,-425.341C764.469,-415.321 809.657,-396.18 833,-360 870.205,-302.334 818.459,-218.774 792.866,-183.595"/>
</g>
<!-- ActiveRecord::Base&#45;&gt;EquipmentList -->
<g id="edge4" class="edge"><title>ActiveRecord::Base&#45;&gt;EquipmentList</title>
<path fill="none" stroke="black" d="M742.211,-431.312C839.607,-423.6 998.789,-404.405 1035,-360 1077.76,-307.566 1032.56,-220.408 1010.1,-183.9"/>
</g>
<!-- ActiveRecord::Base&#45;&gt;ParticipantRole -->
<g id="edge5" class="edge"><title>ActiveRecord::Base&#45;&gt;ParticipantRole</title>
<path fill="none" stroke="black" d="M681.805,-419.373C698.915,-402.446 725.283,-376.358 742.34,-359.483"/>
</g>
<!-- ActiveRecord::Base&#45;&gt;EquipmentItem -->
<g id="edge7" class="edge"><title>ActiveRecord::Base&#45;&gt;EquipmentItem</title>
<path fill="none" stroke="black" d="M634.242,-420.282C616.985,-412.206 594.802,-403.028 574,-398 511.724,-382.946 0,-407.07 0,-343 0,-343 0,-343 0,-165 0,-153.669 8.5326,-152.339 19,-148 102.923,-113.21 727.053,-98.2162 933.162,-94.1785"/>
</g>
<!-- ActiveRecord::Base&#45;&gt;Article -->
<g id="edge8" class="edge"><title>ActiveRecord::Base&#45;&gt;Article</title>
<path fill="none" stroke="black" d="M737.721,-428.918C780.664,-420.332 830.837,-401.445 853,-360 884.317,-301.437 884.679,-219.415 883.129,-184.185"/>
</g>
<!-- ActiveRecord::Base&#45;&gt;Event -->
<g id="edge9" class="edge"><title>ActiveRecord::Base&#45;&gt;Event</title>
<path fill="none" stroke="black" d="M653.039,-419.191C646.342,-407.972 639.59,-392.644 641,-378 648.026,-305.009 668.422,-219.755 677.524,-184.067"/>
</g>
<!-- ActiveRecord::Base&#45;&gt;EquipmentAssignment -->
<g id="edge10" class="edge"><title>ActiveRecord::Base&#45;&gt;EquipmentAssignment</title>
<path fill="none" stroke="black" d="M745.504,-434.738C869.485,-430.582 1093,-413.337 1093,-343 1093,-343 1093,-343 1093,-91 1093,-70.9583 1082.97,-50.0254 1074.51,-35.9302"/>
</g>
<!-- ActiveRecord::Base&#45;&gt;ApiProvider -->
<g id="edge11" class="edge"><title>ActiveRecord::Base&#45;&gt;ApiProvider</title>
<path fill="none" stroke="black" d="M729.043,-425.903C778.203,-417.004 847.22,-401.998 905,-380 920.198,-374.214 936.221,-365.631 948.893,-358.189"/>
</g>
<!-- ActiveRecord::Base&#45;&gt;Friendship -->
<g id="edge12" class="edge"><title>ActiveRecord::Base&#45;&gt;Friendship</title>
<path fill="none" stroke="black" d="M647.5,-419.258C636.847,-408.578 623.345,-394.131 613,-380 585.841,-342.904 594.859,-322.157 562,-290 552.565,-280.767 540.2,-273.298 528.79,-267.668"/>
</g>
<!-- ActiveRecord::Base&#45;&gt;User -->
<g id="edge22" class="edge"><title>ActiveRecord::Base&#45;&gt;User</title>
<path fill="none" stroke="black" d="M630.822,-420.539C613.917,-413.199 593.091,-404.609 574,-398 512.978,-376.876 439.266,-358.129 401.313,-348.957"/>
</g>
<!-- ActiveRecord::Base&#45;&gt;Request -->
<g id="edge23" class="edge"><title>ActiveRecord::Base&#45;&gt;Request</title>
<path fill="none" stroke="black" d="M659.073,-418.972C647.035,-384.387 619.851,-306.287 607.865,-271.851"/>
</g>
<!-- ActiveRecord::Base&#45;&gt;Trip -->
<g id="edge33" class="edge"><title>ActiveRecord::Base&#45;&gt;Trip</title>
<path fill="none" stroke="black" d="M632.811,-420.381C615.692,-412.637 594.084,-403.738 574,-398 472.691,-369.057 421.108,-427.252 340,-360 313.436,-337.974 305.441,-295.815 303.035,-272.169"/>
</g>
</g>
</svg>
