<?xml version="1.0" encoding="UTF-8" standalone="no"?>
<!DOCTYPE svg PUBLIC "-//W3C//DTD SVG 1.1//EN"
 "http://www.w3.org/Graphics/SVG/1.1/DTD/svg11.dtd">
<!-- Generated by graphviz version 2.36.0 (20140111.2315)
 -->
<!-- Title: models_diagram Pages: 1 -->
<svg width="1600pt" height="1160pt"
 viewBox="0.00 0.00 1600.00 1160.00" xmlns="http://www.w3.org/2000/svg" xmlns:xlink="http://www.w3.org/1999/xlink">
<g id="graph0" class="graph" transform="scale(1 1) rotate(0) translate(4 1156)">
<title>models_diagram</title>
<polygon fill="white" stroke="none" points="-4,4 -4,-1156 1596,-1156 1596,4 -4,4"/>
<!-- _diagram_info -->
<g id="node1" class="node"><title>_diagram_info</title>
<text text-anchor="start" x="758" y="-1017.6" font-family="Times,serif" font-size="13.00">Models diagram</text>
<text text-anchor="start" x="758" y="-1003.6" font-family="Times,serif" font-size="13.00">Date: Apr 30 2015 &#45; 14:10</text>
<text text-anchor="start" x="758" y="-989.6" font-family="Times,serif" font-size="13.00">Migration version: 20150407093413</text>
<text text-anchor="start" x="758" y="-975.6" font-family="Times,serif" font-size="13.00">Generated by RailRoady 1.3.0</text>
<text text-anchor="start" x="758" y="-961.6" font-family="Times,serif" font-size="13.00">http://railroady.prestonlee.com</text>
</g>
<!-- ApiAccessToken -->
<g id="node2" class="node"><title>ApiAccessToken</title>
<path fill="none" stroke="black" d="M921,-365.5C921,-365.5 1045,-365.5 1045,-365.5 1051,-365.5 1057,-371.5 1057,-377.5 1057,-377.5 1057,-504.5 1057,-504.5 1057,-510.5 1051,-516.5 1045,-516.5 1045,-516.5 921,-516.5 921,-516.5 915,-516.5 909,-510.5 909,-504.5 909,-504.5 909,-377.5 909,-377.5 909,-371.5 915,-365.5 921,-365.5"/>
<text text-anchor="middle" x="983" y="-501.3" font-family="Times,serif" font-size="14.00">ApiAccessToken</text>
<polyline fill="none" stroke="black" points="909,-493.5 1057,-493.5 "/>
<text text-anchor="start" x="917" y="-478.3" font-family="Times,serif" font-size="14.00">id :integer</text>
<text text-anchor="start" x="917" y="-463.3" font-family="Times,serif" font-size="14.00">user_id :integer</text>
<text text-anchor="start" x="917" y="-448.3" font-family="Times,serif" font-size="14.00">trip_id :integer</text>
<text text-anchor="start" x="917" y="-433.3" font-family="Times,serif" font-size="14.00">api_provider_id :integer</text>
<text text-anchor="start" x="917" y="-418.3" font-family="Times,serif" font-size="14.00">token :string</text>
<text text-anchor="start" x="917" y="-403.3" font-family="Times,serif" font-size="14.00">item :string</text>
<text text-anchor="start" x="917" y="-388.3" font-family="Times,serif" font-size="14.00">created_at :datetime</text>
<text text-anchor="start" x="917" y="-373.3" font-family="Times,serif" font-size="14.00">updated_at :datetime</text>
</g>
<!-- Participant -->
<g id="node3" class="node"><title>Participant</title>
<path fill="none" stroke="black" d="M1087,-380.5C1087,-380.5 1227,-380.5 1227,-380.5 1233,-380.5 1239,-386.5 1239,-392.5 1239,-392.5 1239,-489.5 1239,-489.5 1239,-495.5 1233,-501.5 1227,-501.5 1227,-501.5 1087,-501.5 1087,-501.5 1081,-501.5 1075,-495.5 1075,-489.5 1075,-489.5 1075,-392.5 1075,-392.5 1075,-386.5 1081,-380.5 1087,-380.5"/>
<text text-anchor="middle" x="1157" y="-486.3" font-family="Times,serif" font-size="14.00">Participant</text>
<polyline fill="none" stroke="black" points="1075,-478.5 1239,-478.5 "/>
<text text-anchor="start" x="1083" y="-463.3" font-family="Times,serif" font-size="14.00">id :integer</text>
<text text-anchor="start" x="1083" y="-448.3" font-family="Times,serif" font-size="14.00">user_id :integer</text>
<text text-anchor="start" x="1083" y="-433.3" font-family="Times,serif" font-size="14.00">trip_id :integer</text>
<text text-anchor="start" x="1083" y="-418.3" font-family="Times,serif" font-size="14.00">created_at :datetime</text>
<text text-anchor="start" x="1083" y="-403.3" font-family="Times,serif" font-size="14.00">updated_at :datetime</text>
<text text-anchor="start" x="1083" y="-388.3" font-family="Times,serif" font-size="14.00">participant_role_id :integer</text>
</g>
<!-- EquipmentList -->
<g id="node4" class="node"><title>EquipmentList</title>
<path fill="none" stroke="black" d="M771.5,-373C771.5,-373 878.5,-373 878.5,-373 884.5,-373 890.5,-379 890.5,-385 890.5,-385 890.5,-497 890.5,-497 890.5,-503 884.5,-509 878.5,-509 878.5,-509 771.5,-509 771.5,-509 765.5,-509 759.5,-503 759.5,-497 759.5,-497 759.5,-385 759.5,-385 759.5,-379 765.5,-373 771.5,-373"/>
<text text-anchor="middle" x="825" y="-493.8" font-family="Times,serif" font-size="14.00">EquipmentList</text>
<polyline fill="none" stroke="black" points="759.5,-486 890.5,-486 "/>
<text text-anchor="start" x="767.5" y="-470.8" font-family="Times,serif" font-size="14.00">id :integer</text>
<text text-anchor="start" x="767.5" y="-455.8" font-family="Times,serif" font-size="14.00">name :string</text>
<text text-anchor="start" x="767.5" y="-440.8" font-family="Times,serif" font-size="14.00">description :string</text>
<text text-anchor="start" x="767.5" y="-425.8" font-family="Times,serif" font-size="14.00">icon :string</text>
<text text-anchor="start" x="767.5" y="-410.8" font-family="Times,serif" font-size="14.00">created_at :datetime</text>
<text text-anchor="start" x="767.5" y="-395.8" font-family="Times,serif" font-size="14.00">updated_at :datetime</text>
<text text-anchor="start" x="767.5" y="-380.8" font-family="Times,serif" font-size="14.00">trip_id :integer</text>
</g>
<!-- EquipmentItem -->
<g id="node6" class="node"><title>EquipmentItem</title>
<path fill="none" stroke="black" d="M757,-160.5C757,-160.5 893,-160.5 893,-160.5 899,-160.5 905,-166.5 905,-172.5 905,-172.5 905,-299.5 905,-299.5 905,-305.5 899,-311.5 893,-311.5 893,-311.5 757,-311.5 757,-311.5 751,-311.5 745,-305.5 745,-299.5 745,-299.5 745,-172.5 745,-172.5 745,-166.5 751,-160.5 757,-160.5"/>
<text text-anchor="middle" x="825" y="-296.3" font-family="Times,serif" font-size="14.00">EquipmentItem</text>
<polyline fill="none" stroke="black" points="745,-288.5 905,-288.5 "/>
<text text-anchor="start" x="753" y="-273.3" font-family="Times,serif" font-size="14.00">id :integer</text>
<text text-anchor="start" x="753" y="-258.3" font-family="Times,serif" font-size="14.00">name :string</text>
<text text-anchor="start" x="753" y="-243.3" font-family="Times,serif" font-size="14.00">price :float</text>
<text text-anchor="start" x="753" y="-228.3" font-family="Times,serif" font-size="14.00">number :integer</text>
<text text-anchor="start" x="753" y="-213.3" font-family="Times,serif" font-size="14.00">created_at :datetime</text>
<text text-anchor="start" x="753" y="-198.3" font-family="Times,serif" font-size="14.00">updated_at :datetime</text>
<text text-anchor="start" x="753" y="-183.3" font-family="Times,serif" font-size="14.00">equipment_list_id :integer</text>
<text text-anchor="start" x="753" y="-168.3" font-family="Times,serif" font-size="14.00">user_id :integer</text>
</g>
<!-- EquipmentList&#45;&gt;EquipmentItem -->
<g id="edge1" class="edge"><title>EquipmentList&#45;&gt;EquipmentItem</title>
<path fill="none" stroke="#90d44f" d="M825,-364.579C825,-350.67 825,-336.06 825,-321.894"/>
<ellipse fill="none" stroke="#90d44f" cx="825" cy="-368.968" rx="4" ry="4"/>
<polygon fill="#90d44f" stroke="#90d44f" points="825,-321.673 829.5,-311.673 825,-316.673 825,-311.673 825,-311.673 825,-311.673 825,-316.673 820.5,-311.673 825,-321.673 825,-321.673"/>
</g>
<!-- ParticipantRole -->
<g id="node5" class="node"><title>ParticipantRole</title>
<path fill="none" stroke="black" d="M1370.5,-947.5C1370.5,-947.5 1477.5,-947.5 1477.5,-947.5 1483.5,-947.5 1489.5,-953.5 1489.5,-959.5 1489.5,-959.5 1489.5,-1026.5 1489.5,-1026.5 1489.5,-1032.5 1483.5,-1038.5 1477.5,-1038.5 1477.5,-1038.5 1370.5,-1038.5 1370.5,-1038.5 1364.5,-1038.5 1358.5,-1032.5 1358.5,-1026.5 1358.5,-1026.5 1358.5,-959.5 1358.5,-959.5 1358.5,-953.5 1364.5,-947.5 1370.5,-947.5"/>
<text text-anchor="middle" x="1424" y="-1023.3" font-family="Times,serif" font-size="14.00">ParticipantRole</text>
<polyline fill="none" stroke="black" points="1358.5,-1015.5 1489.5,-1015.5 "/>
<text text-anchor="start" x="1366.5" y="-1000.3" font-family="Times,serif" font-size="14.00">id :integer</text>
<text text-anchor="start" x="1366.5" y="-985.3" font-family="Times,serif" font-size="14.00">name :string</text>
<text text-anchor="start" x="1366.5" y="-970.3" font-family="Times,serif" font-size="14.00">created_at :datetime</text>
<text text-anchor="start" x="1366.5" y="-955.3" font-family="Times,serif" font-size="14.00">updated_at :datetime</text>
</g>
<!-- EquipmentAssignment -->
<g id="node9" class="node"><title>EquipmentAssignment</title>
<path fill="none" stroke="black" d="M753,-0.5C753,-0.5 897,-0.5 897,-0.5 903,-0.5 909,-6.5 909,-12.5 909,-12.5 909,-109.5 909,-109.5 909,-115.5 903,-121.5 897,-121.5 897,-121.5 753,-121.5 753,-121.5 747,-121.5 741,-115.5 741,-109.5 741,-109.5 741,-12.5 741,-12.5 741,-6.5 747,-0.5 753,-0.5"/>
<text text-anchor="middle" x="825" y="-106.3" font-family="Times,serif" font-size="14.00">EquipmentAssignment</text>
<polyline fill="none" stroke="black" points="741,-98.5 909,-98.5 "/>
<text text-anchor="start" x="749" y="-83.3" font-family="Times,serif" font-size="14.00">id :integer</text>
<text text-anchor="start" x="749" y="-68.3" font-family="Times,serif" font-size="14.00">number :integer</text>
<text text-anchor="start" x="749" y="-53.3" font-family="Times,serif" font-size="14.00">created_at :datetime</text>
<text text-anchor="start" x="749" y="-38.3" font-family="Times,serif" font-size="14.00">updated_at :datetime</text>
<text text-anchor="start" x="749" y="-23.3" font-family="Times,serif" font-size="14.00">equipment_item_id :integer</text>
<text text-anchor="start" x="749" y="-8.3" font-family="Times,serif" font-size="14.00">user_id :integer</text>
</g>
<!-- EquipmentItem&#45;&gt;EquipmentAssignment -->
<g id="edge2" class="edge"><title>EquipmentItem&#45;&gt;EquipmentAssignment</title>
<path fill="none" stroke="#251572" d="M825,-152.122C825,-145.346 825,-138.54 825,-131.871"/>
<ellipse fill="none" stroke="#251572" cx="825" cy="-156.377" rx="4" ry="4"/>
<polygon fill="#251572" stroke="#251572" points="825,-131.528 829.5,-121.528 825,-126.528 825,-121.528 825,-121.528 825,-121.528 825,-126.528 820.5,-121.528 825,-131.528 825,-131.528"/>
</g>
<!-- Article -->
<g id="node7" class="node"><title>Article</title>
<path fill="none" stroke="black" d="M11.5,-380.5C11.5,-380.5 118.5,-380.5 118.5,-380.5 124.5,-380.5 130.5,-386.5 130.5,-392.5 130.5,-392.5 130.5,-489.5 130.5,-489.5 130.5,-495.5 124.5,-501.5 118.5,-501.5 118.5,-501.5 11.5,-501.5 11.5,-501.5 5.5,-501.5 -0.5,-495.5 -0.5,-489.5 -0.5,-489.5 -0.5,-392.5 -0.5,-392.5 -0.5,-386.5 5.5,-380.5 11.5,-380.5"/>
<text text-anchor="middle" x="65" y="-486.3" font-family="Times,serif" font-size="14.00">Article</text>
<polyline fill="none" stroke="black" points="-0.5,-478.5 130.5,-478.5 "/>
<text text-anchor="start" x="7.5" y="-463.3" font-family="Times,serif" font-size="14.00">id :integer</text>
<text text-anchor="start" x="7.5" y="-448.3" font-family="Times,serif" font-size="14.00">title :string</text>
<text text-anchor="start" x="7.5" y="-433.3" font-family="Times,serif" font-size="14.00">content :text</text>
<text text-anchor="start" x="7.5" y="-418.3" font-family="Times,serif" font-size="14.00">trip_id :integer</text>
<text text-anchor="start" x="7.5" y="-403.3" font-family="Times,serif" font-size="14.00">created_at :datetime</text>
<text text-anchor="start" x="7.5" y="-388.3" font-family="Times,serif" font-size="14.00">updated_at :datetime</text>
</g>
<!-- Event -->
<g id="node8" class="node"><title>Event</title>
<path fill="none" stroke="black" d="M160.5,-350.5C160.5,-350.5 267.5,-350.5 267.5,-350.5 273.5,-350.5 279.5,-356.5 279.5,-362.5 279.5,-362.5 279.5,-519.5 279.5,-519.5 279.5,-525.5 273.5,-531.5 267.5,-531.5 267.5,-531.5 160.5,-531.5 160.5,-531.5 154.5,-531.5 148.5,-525.5 148.5,-519.5 148.5,-519.5 148.5,-362.5 148.5,-362.5 148.5,-356.5 154.5,-350.5 160.5,-350.5"/>
<text text-anchor="middle" x="214" y="-516.3" font-family="Times,serif" font-size="14.00">Event</text>
<polyline fill="none" stroke="black" points="148.5,-508.5 279.5,-508.5 "/>
<text text-anchor="start" x="156.5" y="-493.3" font-family="Times,serif" font-size="14.00">id :integer</text>
<text text-anchor="start" x="156.5" y="-478.3" font-family="Times,serif" font-size="14.00">name :string</text>
<text text-anchor="start" x="156.5" y="-463.3" font-family="Times,serif" font-size="14.00">description :text</text>
<text text-anchor="start" x="156.5" y="-448.3" font-family="Times,serif" font-size="14.00">color :string</text>
<text text-anchor="start" x="156.5" y="-433.3" font-family="Times,serif" font-size="14.00">start_date :datetime</text>
<text text-anchor="start" x="156.5" y="-418.3" font-family="Times,serif" font-size="14.00">end_date :datetime</text>
<text text-anchor="start" x="156.5" y="-403.3" font-family="Times,serif" font-size="14.00">trip_id :integer</text>
<text text-anchor="start" x="156.5" y="-388.3" font-family="Times,serif" font-size="14.00">created_at :datetime</text>
<text text-anchor="start" x="156.5" y="-373.3" font-family="Times,serif" font-size="14.00">updated_at :datetime</text>
<text text-anchor="start" x="156.5" y="-358.3" font-family="Times,serif" font-size="14.00">location :string</text>
</g>
<!-- ApiProvider -->
<g id="node10" class="node"><title>ApiProvider</title>
<path fill="none" stroke="black" d="M1519.5,-962.5C1519.5,-962.5 1580.5,-962.5 1580.5,-962.5 1586.5,-962.5 1592.5,-968.5 1592.5,-974.5 1592.5,-974.5 1592.5,-1011.5 1592.5,-1011.5 1592.5,-1017.5 1586.5,-1023.5 1580.5,-1023.5 1580.5,-1023.5 1519.5,-1023.5 1519.5,-1023.5 1513.5,-1023.5 1507.5,-1017.5 1507.5,-1011.5 1507.5,-1011.5 1507.5,-974.5 1507.5,-974.5 1507.5,-968.5 1513.5,-962.5 1519.5,-962.5"/>
<text text-anchor="middle" x="1550" y="-1008.3" font-family="Times,serif" font-size="14.00">ApiProvider</text>
<polyline fill="none" stroke="black" points="1507.5,-1000.5 1592.5,-1000.5 "/>
<text text-anchor="start" x="1515.5" y="-985.3" font-family="Times,serif" font-size="14.00">id :integer</text>
<text text-anchor="start" x="1515.5" y="-970.3" font-family="Times,serif" font-size="14.00">name :string</text>
</g>
<!-- Friendship -->
<g id="node11" class="node"><title>Friendship</title>
<path fill="none" stroke="black" d="M1061.5,-630C1061.5,-630 1168.5,-630 1168.5,-630 1174.5,-630 1180.5,-636 1180.5,-642 1180.5,-642 1180.5,-724 1180.5,-724 1180.5,-730 1174.5,-736 1168.5,-736 1168.5,-736 1061.5,-736 1061.5,-736 1055.5,-736 1049.5,-730 1049.5,-724 1049.5,-724 1049.5,-642 1049.5,-642 1049.5,-636 1055.5,-630 1061.5,-630"/>
<text text-anchor="middle" x="1115" y="-720.8" font-family="Times,serif" font-size="14.00">Friendship</text>
<polyline fill="none" stroke="black" points="1049.5,-713 1180.5,-713 "/>
<text text-anchor="start" x="1057.5" y="-697.8" font-family="Times,serif" font-size="14.00">id :integer</text>
<text text-anchor="start" x="1057.5" y="-682.8" font-family="Times,serif" font-size="14.00">user_id :integer</text>
<text text-anchor="start" x="1057.5" y="-667.8" font-family="Times,serif" font-size="14.00">friend_id :integer</text>
<text text-anchor="start" x="1057.5" y="-652.8" font-family="Times,serif" font-size="14.00">created_at :datetime</text>
<text text-anchor="start" x="1057.5" y="-637.8" font-family="Times,serif" font-size="14.00">updated_at :datetime</text>
</g>
<!-- User -->
<g id="node12" class="node"><title>User</title>
<path fill="none" stroke="black" d="M994,-835C994,-835 1170,-835 1170,-835 1176,-835 1182,-841 1182,-847 1182,-847 1182,-1139 1182,-1139 1182,-1145 1176,-1151 1170,-1151 1170,-1151 994,-1151 994,-1151 988,-1151 982,-1145 982,-1139 982,-1139 982,-847 982,-847 982,-841 988,-835 994,-835"/>
<text text-anchor="middle" x="1082" y="-1135.8" font-family="Times,serif" font-size="14.00">User</text>
<polyline fill="none" stroke="black" points="982,-1128 1182,-1128 "/>
<text text-anchor="start" x="990" y="-1112.8" font-family="Times,serif" font-size="14.00">id :integer</text>
<text text-anchor="start" x="990" y="-1097.8" font-family="Times,serif" font-size="14.00">email :string</text>
<text text-anchor="start" x="990" y="-1082.8" font-family="Times,serif" font-size="14.00">encrypted_password :string</text>
<text text-anchor="start" x="990" y="-1067.8" font-family="Times,serif" font-size="14.00">name :string</text>
<text text-anchor="start" x="990" y="-1052.8" font-family="Times,serif" font-size="14.00">reset_password_token :string</text>
<text text-anchor="start" x="990" y="-1037.8" font-family="Times,serif" font-size="14.00">reset_password_sent_at :datetime</text>
<text text-anchor="start" x="990" y="-1022.8" font-family="Times,serif" font-size="14.00">remember_created_at :datetime</text>
<text text-anchor="start" x="990" y="-1007.8" font-family="Times,serif" font-size="14.00">sign_in_count :integer</text>
<text text-anchor="start" x="990" y="-992.8" font-family="Times,serif" font-size="14.00">current_sign_in_at :datetime</text>
<text text-anchor="start" x="990" y="-977.8" font-family="Times,serif" font-size="14.00">last_sign_in_at :datetime</text>
<text text-anchor="start" x="990" y="-962.8" font-family="Times,serif" font-size="14.00">current_sign_in_ip :string</text>
<text text-anchor="start" x="990" y="-947.8" font-family="Times,serif" font-size="14.00">last_sign_in_ip :string</text>
<text text-anchor="start" x="990" y="-932.8" font-family="Times,serif" font-size="14.00">created_at :datetime</text>
<text text-anchor="start" x="990" y="-917.8" font-family="Times,serif" font-size="14.00">updated_at :datetime</text>
<text text-anchor="start" x="990" y="-902.8" font-family="Times,serif" font-size="14.00">country :string</text>
<text text-anchor="start" x="990" y="-887.8" font-family="Times,serif" font-size="14.00">town :string</text>
<text text-anchor="start" x="990" y="-872.8" font-family="Times,serif" font-size="14.00">age :integer</text>
<text text-anchor="start" x="990" y="-857.8" font-family="Times,serif" font-size="14.00">status :string</text>
<text text-anchor="start" x="990" y="-842.8" font-family="Times,serif" font-size="14.00">image :text</text>
</g>
<!-- User&#45;&gt;ApiAccessToken -->
<g id="edge11" class="edge"><title>User&#45;&gt;ApiAccessToken</title>
<path fill="none" stroke="#412487" d="M1028.15,-827.123C1027.08,-823.385 1026.03,-819.674 1025,-816 997.981,-719.181 988.268,-603.662 984.819,-526.884"/>
<ellipse fill="none" stroke="#412487" cx="1029.28" cy="-830.988" rx="4.00001" ry="4.00001"/>
<polygon fill="#412487" stroke="#412487" points="984.814,-526.773 988.887,-516.592 984.603,-521.778 984.391,-516.782 984.391,-516.782 984.391,-516.782 984.603,-521.778 979.895,-516.973 984.814,-526.773 984.814,-526.773"/>
</g>
<!-- User&#45;&gt;Participant -->
<g id="edge10" class="edge"><title>User&#45;&gt;Participant</title>
<path fill="none" stroke="#08c704" d="M1032.47,-826.331C1017.96,-750.57 1012.44,-660.79 1040,-584 1049.75,-556.837 1067.19,-531.16 1085.68,-509.304"/>
<ellipse fill="none" stroke="#08c704" cx="1033.32" cy="-830.631" rx="4.00001" ry="4.00001"/>
<polygon fill="#08c704" stroke="#08c704" points="1085.69,-509.286 1095.65,-504.687 1088.97,-505.511 1092.25,-501.736 1092.25,-501.736 1092.25,-501.736 1088.97,-505.511 1088.85,-498.785 1085.69,-509.286 1085.69,-509.286"/>
</g>
<!-- User&#45;&gt;Friendship -->
<g id="edge3" class="edge"><title>User&#45;&gt;Friendship</title>
<path fill="none" stroke="#78d8e3" d="M1093.08,-826.943C1093.99,-817.821 1094.96,-808.792 1096,-800 1098.07,-782.466 1100.91,-763.534 1103.77,-746.152"/>
<ellipse fill="none" stroke="#78d8e3" cx="1092.68" cy="-830.998" rx="4" ry="4"/>
<polygon fill="#78d8e3" stroke="#78d8e3" points="1103.8,-745.982 1109.88,-736.86 1104.62,-741.05 1105.44,-736.119 1105.44,-736.119 1105.44,-736.119 1104.62,-741.05 1101,-735.377 1103.8,-745.982 1103.8,-745.982"/>
</g>
<!-- User&#45;&gt;Friendship -->
<g id="edge5" class="edge"><title>User&#45;&gt;Friendship</title>
<path fill="none" stroke="#5a4b92" d="M1099.74,-826.473C1102.8,-797.837 1105.81,-769.735 1108.34,-746.159"/>
<ellipse fill="none" stroke="#5a4b92" cx="1099.26" cy="-830.865" rx="4" ry="4"/>
<polygon fill="#5a4b92" stroke="#5a4b92" points="1108.36,-745.945 1113.9,-736.482 1108.9,-740.974 1109.43,-736.002 1109.43,-736.002 1109.43,-736.002 1108.9,-740.974 1104.95,-735.523 1108.36,-745.945 1108.36,-745.945"/>
<text text-anchor="middle" x="1156" y="-804.3" font-family="Times,serif" font-size="14.00">inverse_friendships</text>
</g>
<!-- User&#45;&gt;User -->
<g id="edge4" class="edge"><title>User&#45;&gt;User</title>
<path fill="none" stroke="#f1bf54" d="M1191.91,-1003.82C1197.01,-1001.09 1200,-997.481 1200,-993 1200,-988.519 1197.01,-984.911 1191.91,-982.176"/>
<polygon fill="#f1bf54" stroke="#f1bf54" points="1191.66,-1003.92 1180.72,-1003.19 1186.97,-1005.66 1182.29,-1007.4 1182.29,-1007.4 1182.29,-1007.4 1186.97,-1005.66 1183.86,-1011.62 1191.66,-1003.92 1191.66,-1003.92"/>
<polygon fill="#f1bf54" stroke="#f1bf54" points="1191.66,-982.082 1183.86,-974.379 1186.97,-980.339 1182.29,-978.597 1182.29,-978.597 1182.29,-978.597 1186.97,-980.339 1180.72,-982.815 1191.66,-982.082 1191.66,-982.082"/>
<text text-anchor="middle" x="1219" y="-989.3" font-family="Times,serif" font-size="14.00">friends</text>
</g>
<!-- User&#45;&gt;User -->
<g id="edge6" class="edge"><title>User&#45;&gt;User</title>
<path fill="none" stroke="#4aae71" d="M1192.32,-1026.64C1218.4,-1023.57 1238,-1012.36 1238,-993 1238,-973.641 1218.4,-962.429 1192.32,-959.365"/>
<polygon fill="#4aae71" stroke="#4aae71" points="1192,-1026.66 1181.69,-1022.92 1187.02,-1027.04 1182.03,-1027.41 1182.03,-1027.41 1182.03,-1027.41 1187.02,-1027.04 1182.37,-1031.9 1192,-1026.66 1192,-1026.66"/>
<polygon fill="#4aae71" stroke="#4aae71" points="1192,-959.341 1182.37,-954.102 1187.02,-958.965 1182.03,-958.589 1182.03,-958.589 1182.03,-958.589 1187.02,-958.965 1181.69,-963.076 1192,-959.341 1192,-959.341"/>
<text text-anchor="middle" x="1280" y="-989.3" font-family="Times,serif" font-size="14.00">inverse_friends</text>
</g>
<!-- Request -->
<g id="node13" class="node"><title>Request</title>
<path fill="none" stroke="black" d="M1210.5,-630C1210.5,-630 1317.5,-630 1317.5,-630 1323.5,-630 1329.5,-636 1329.5,-642 1329.5,-642 1329.5,-724 1329.5,-724 1329.5,-730 1323.5,-736 1317.5,-736 1317.5,-736 1210.5,-736 1210.5,-736 1204.5,-736 1198.5,-730 1198.5,-724 1198.5,-724 1198.5,-642 1198.5,-642 1198.5,-636 1204.5,-630 1210.5,-630"/>
<text text-anchor="middle" x="1264" y="-720.8" font-family="Times,serif" font-size="14.00">Request</text>
<polyline fill="none" stroke="black" points="1198.5,-713 1329.5,-713 "/>
<text text-anchor="start" x="1206.5" y="-697.8" font-family="Times,serif" font-size="14.00">id :integer</text>
<text text-anchor="start" x="1206.5" y="-682.8" font-family="Times,serif" font-size="14.00">requester_id :integer</text>
<text text-anchor="start" x="1206.5" y="-667.8" font-family="Times,serif" font-size="14.00">reciever_id :integer</text>
<text text-anchor="start" x="1206.5" y="-652.8" font-family="Times,serif" font-size="14.00">created_at :datetime</text>
<text text-anchor="start" x="1206.5" y="-637.8" font-family="Times,serif" font-size="14.00">updated_at :datetime</text>
</g>
<!-- User&#45;&gt;Request -->
<g id="edge7" class="edge"><title>User&#45;&gt;Request</title>
<path fill="none" stroke="#707406" d="M1186.74,-858.98C1196.15,-844.807 1205.09,-830.33 1213,-816 1225.15,-793.98 1235.74,-768.461 1244.07,-745.765"/>
<ellipse fill="none" stroke="#707406" cx="1184.31" cy="-862.59" rx="4.00002" ry="4.00002"/>
<polygon fill="#707406" stroke="#707406" points="1244.12,-745.638 1251.74,-737.752 1245.81,-740.933 1247.5,-736.229 1247.5,-736.229 1247.5,-736.229 1245.81,-740.933 1243.27,-734.705 1244.12,-745.638 1244.12,-745.638"/>
</g>
<!-- Trip -->
<g id="node14" class="node"><title>Trip</title>
<path fill="none" stroke="black" d="M593.5,-585C593.5,-585 700.5,-585 700.5,-585 706.5,-585 712.5,-591 712.5,-597 712.5,-597 712.5,-769 712.5,-769 712.5,-775 706.5,-781 700.5,-781 700.5,-781 593.5,-781 593.5,-781 587.5,-781 581.5,-775 581.5,-769 581.5,-769 581.5,-597 581.5,-597 581.5,-591 587.5,-585 593.5,-585"/>
<text text-anchor="middle" x="647" y="-765.8" font-family="Times,serif" font-size="14.00">Trip</text>
<polyline fill="none" stroke="black" points="581.5,-758 712.5,-758 "/>
<text text-anchor="start" x="589.5" y="-742.8" font-family="Times,serif" font-size="14.00">id :integer</text>
<text text-anchor="start" x="589.5" y="-727.8" font-family="Times,serif" font-size="14.00">title :text</text>
<text text-anchor="start" x="589.5" y="-712.8" font-family="Times,serif" font-size="14.00">description :text</text>
<text text-anchor="start" x="589.5" y="-697.8" font-family="Times,serif" font-size="14.00">start_loc :text</text>
<text text-anchor="start" x="589.5" y="-682.8" font-family="Times,serif" font-size="14.00">end_loc :text</text>
<text text-anchor="start" x="589.5" y="-667.8" font-family="Times,serif" font-size="14.00">image :text</text>
<text text-anchor="start" x="589.5" y="-652.8" font-family="Times,serif" font-size="14.00">created_at :datetime</text>
<text text-anchor="start" x="589.5" y="-637.8" font-family="Times,serif" font-size="14.00">updated_at :datetime</text>
<text text-anchor="start" x="589.5" y="-622.8" font-family="Times,serif" font-size="14.00">start_date :text</text>
<text text-anchor="start" x="589.5" y="-607.8" font-family="Times,serif" font-size="14.00">end_date :text</text>
<text text-anchor="start" x="589.5" y="-592.8" font-family="Times,serif" font-size="14.00">user_id :integer</text>
</g>
<!-- User&#45;&gt;Trip -->
<g id="edge9" class="edge"><title>User&#45;&gt;Trip</title>
<path fill="none" stroke="#93f989" d="M975.723,-837.191C974.49,-836.111 973.249,-835.047 972,-834 897.511,-771.574 792.739,-729.44 722.486,-706.102"/>
<ellipse fill="none" stroke="#93f989" cx="978.861" cy="-840.037" rx="4.00002" ry="4.00002"/>
<polygon fill="#93f989" stroke="#93f989" points="722.312,-706.045 714.209,-698.657 717.561,-704.49 712.809,-702.934 712.809,-702.934 712.809,-702.934 717.561,-704.49 711.409,-707.21 722.312,-706.045 722.312,-706.045"/>
</g>
<!-- Requester -->
<g id="node15" class="node"><title>Requester</title>
<ellipse fill="none" stroke="black" cx="1394" cy="-683" rx="46.2191" ry="18"/>
<text text-anchor="middle" x="1394" y="-679.3" font-family="Times,serif" font-size="14.00">Requester</text>
</g>
<!-- User&#45;&gt;Requester -->
<g id="edge8" class="edge"><title>User&#45;&gt;Requester</title>
<path fill="none" stroke="#52d1d5" d="M1190.19,-917.335C1239.02,-880.278 1295.22,-832.644 1338,-782 1356.56,-760.032 1372.24,-731.044 1382.25,-710.305"/>
<polygon fill="#52d1d5" stroke="#52d1d5" points="1190.09,-917.408 1179.4,-919.83 1186.1,-920.416 1182.1,-923.425 1182.1,-923.425 1182.1,-923.425 1186.1,-920.416 1184.81,-927.019 1190.09,-917.408 1190.09,-917.408"/>
<polygon fill="#52d1d5" stroke="#52d1d5" points="1382.31,-710.181 1390.64,-703.049 1384.44,-705.657 1386.57,-701.133 1386.57,-701.133 1386.57,-701.133 1384.44,-705.657 1382.49,-699.217 1382.31,-710.181 1382.31,-710.181"/>
</g>
<!-- Trip&#45;&gt;ApiAccessToken -->
<g id="edge18" class="edge"><title>Trip&#45;&gt;ApiAccessToken</title>
<path fill="none" stroke="#c27bad" d="M719.908,-645.726C772.223,-618.044 843.062,-577.086 899,-532 902.276,-529.359 905.545,-526.593 908.789,-523.735"/>
<ellipse fill="none" stroke="#c27bad" cx="716.192" cy="-647.681" rx="4.00002" ry="4.00002"/>
<polygon fill="#c27bad" stroke="#c27bad" points="908.897,-523.637 919.327,-520.25 912.6,-520.277 916.303,-516.918 916.303,-516.918 916.303,-516.918 912.6,-520.277 913.279,-513.585 908.897,-523.637 908.897,-523.637"/>
</g>
<!-- Trip&#45;&gt;Participant -->
<g id="edge16" class="edge"><title>Trip&#45;&gt;Participant</title>
<path fill="none" stroke="#9ce062" d="M720.386,-653.738C792.84,-626.157 906.986,-583.564 1007,-550 1032.99,-541.278 1042.46,-546.048 1066,-532 1076.95,-525.467 1087.56,-517.342 1097.44,-508.666"/>
<ellipse fill="none" stroke="#9ce062" cx="716.373" cy="-655.268" rx="4.00001" ry="4.00001"/>
<polygon fill="#9ce062" stroke="#9ce062" points="1097.44,-508.666 1107.86,-505.273 1101.14,-505.304 1104.84,-501.942 1104.84,-501.942 1104.84,-501.942 1101.14,-505.304 1101.81,-498.611 1097.44,-508.666 1097.44,-508.666"/>
</g>
<!-- Trip&#45;&gt;EquipmentList -->
<g id="edge17" class="edge"><title>Trip&#45;&gt;EquipmentList</title>
<path fill="none" stroke="#7fdf68" d="M717.409,-587.066C734.629,-563.848 752.821,-539.32 769.248,-517.171"/>
<ellipse fill="none" stroke="#7fdf68" cx="714.905" cy="-590.443" rx="4.00002" ry="4.00002"/>
<polygon fill="#7fdf68" stroke="#7fdf68" points="769.258,-517.158 778.829,-511.806 772.237,-513.142 775.215,-509.126 775.215,-509.126 775.215,-509.126 772.237,-513.142 771.601,-506.445 769.258,-517.158 769.258,-517.158"/>
</g>
<!-- Trip&#45;&gt;Article -->
<g id="edge20" class="edge"><title>Trip&#45;&gt;Article</title>
<path fill="none" stroke="#88b878" d="M573.317,-674.022C469.055,-659.838 275.936,-622.675 139,-532 129.477,-525.694 120.555,-517.792 112.433,-509.305"/>
<ellipse fill="none" stroke="#88b878" cx="577.317" cy="-674.556" rx="4.00001" ry="4.00001"/>
<polygon fill="#88b878" stroke="#88b878" points="112.25,-509.104 108.828,-498.686 108.877,-505.412 105.505,-501.721 105.505,-501.721 105.505,-501.721 108.877,-505.412 102.183,-504.756 112.25,-509.104 112.25,-509.104"/>
</g>
<!-- Trip&#45;&gt;Event -->
<g id="edge19" class="edge"><title>Trip&#45;&gt;Event</title>
<path fill="none" stroke="#9c98df" d="M573.75,-662.6C497.463,-639.937 377.025,-597.05 289,-532 288.612,-531.713 288.224,-531.423 287.837,-531.132"/>
<ellipse fill="none" stroke="#9c98df" cx="577.613" cy="-663.735" rx="4.00001" ry="4.00001"/>
<polygon fill="#9c98df" stroke="#9c98df" points="287.618,-530.955 282.654,-521.177 283.724,-527.818 279.831,-524.681 279.831,-524.681 279.831,-524.681 283.724,-527.818 277.007,-528.185 287.618,-530.955 287.618,-530.955"/>
</g>
<!-- ActsAsTaggableOn::Tagging -->
<g id="node16" class="node"><title>ActsAsTaggableOn::Tagging</title>
<ellipse fill="none" stroke="black" cx="412" cy="-441" rx="114.085" ry="18"/>
<text text-anchor="middle" x="412" y="-437.3" font-family="Times,serif" font-size="14.00">ActsAsTaggableOn::Tagging</text>
</g>
<!-- Trip&#45;&gt;ActsAsTaggableOn::Tagging -->
<g id="edge12" class="edge"><title>Trip&#45;&gt;ActsAsTaggableOn::Tagging</title>
<path fill="none" stroke="#9323d7" d="M573.846,-661.585C525.521,-644.192 465.035,-614.181 431,-566 411.01,-537.702 408.527,-496.69 409.513,-469.693"/>
<ellipse fill="none" stroke="#9323d7" cx="577.717" cy="-662.944" rx="4.00001" ry="4.00001"/>
<polygon fill="#9323d7" stroke="#9323d7" points="409.529,-469.387 414.574,-459.65 409.805,-464.395 410.08,-459.402 410.08,-459.402 410.08,-459.402 409.805,-464.395 405.587,-459.154 409.529,-469.387 409.529,-469.387"/>
<text text-anchor="middle" x="454" y="-554.3" font-family="Times,serif" font-size="14.00">taggings</text>
</g>
<!-- Trip&#45;&gt;ActsAsTaggableOn::Tagging -->
<g id="edge14" class="edge"><title>Trip&#45;&gt;ActsAsTaggableOn::Tagging</title>
<path fill="none" stroke="#e67d63" d="M575.355,-608.83C527.819,-560.283 468.407,-499.607 435.935,-466.445"/>
<ellipse fill="none" stroke="#e67d63" cx="578.428" cy="-611.969" rx="4.00002" ry="4.00002"/>
<polygon fill="#e67d63" stroke="#e67d63" points="435.662,-466.165 431.881,-455.872 432.163,-462.592 428.665,-459.02 428.665,-459.02 428.665,-459.02 432.163,-462.592 425.45,-462.168 435.662,-466.165 435.662,-466.165"/>
<text text-anchor="middle" x="565" y="-554.3" font-family="Times,serif" font-size="14.00">tag_taggings</text>
</g>
<!-- ActsAsTaggableOn::Tag -->
<g id="node17" class="node"><title>ActsAsTaggableOn::Tag</title>
<ellipse fill="none" stroke="black" cx="643" cy="-441" rx="98.1881" ry="18"/>
<text text-anchor="middle" x="643" y="-437.3" font-family="Times,serif" font-size="14.00">ActsAsTaggableOn::Tag</text>
</g>
<!-- Trip&#45;&gt;ActsAsTaggableOn::Tag -->
<g id="edge13" class="edge"><title>Trip&#45;&gt;ActsAsTaggableOn::Tag</title>
<path fill="none" stroke="#291f06" d="M609.11,-574.77C608.573,-566.441 608.788,-558.116 610,-550 614.251,-521.543 624.473,-490.22 632.423,-468.669"/>
<polygon fill="#291f06" stroke="#291f06" points="609.129,-574.968 605.642,-585.365 609.625,-579.944 610.12,-584.919 610.12,-584.919 610.12,-584.919 609.625,-579.944 614.598,-584.474 609.129,-574.968 609.129,-574.968"/>
<polygon fill="#291f06" stroke="#291f06" points="632.461,-468.569 640.206,-460.807 634.229,-463.892 635.997,-459.215 635.997,-459.215 635.997,-459.215 634.229,-463.892 631.787,-457.624 632.461,-468.569 632.461,-468.569"/>
<text text-anchor="middle" x="636.5" y="-554.3" font-family="Times,serif" font-size="14.00">base_tags</text>
</g>
<!-- Trip&#45;&gt;ActsAsTaggableOn::Tag -->
<g id="edge15" class="edge"><title>Trip&#45;&gt;ActsAsTaggableOn::Tag</title>
<path fill="none" stroke="#2d2275" d="M663.838,-574.598C663.974,-566.281 663.735,-558.008 663,-550 660.438,-522.095 654.227,-490.639 649.401,-468.904"/>
<polygon fill="#2d2275" stroke="#2d2275" points="663.833,-574.756 658.997,-584.598 663.664,-579.754 663.494,-584.751 663.494,-584.751 663.494,-584.751 663.664,-579.754 667.992,-584.903 663.833,-574.756 663.833,-574.756"/>
<polygon fill="#2d2275" stroke="#2d2275" points="649.382,-468.824 651.552,-458.075 648.273,-463.949 647.165,-459.073 647.165,-459.073 647.165,-459.073 648.273,-463.949 642.777,-460.071 649.382,-468.824 649.382,-468.824"/>
<text text-anchor="middle" x="675" y="-554.3" font-family="Times,serif" font-size="14.00">tags</text>
</g>
</g>
</svg>
